<mxfile host="app.diagrams.net" agent="Mozilla/5.0 (Windows NT 10.0; Win64; x64) AppleWebKit/537.36 (KHTML, like Gecko) Chrome/137.0.0.0 Safari/537.36" version="27.1.3">
  <diagram name="Page-1" id="AU6ZhvNn1BWEqoQLjiyR">
    <mxGraphModel dx="983" dy="512" grid="1" gridSize="10" guides="1" tooltips="1" connect="1" arrows="1" fold="1" page="1" pageScale="1" pageWidth="850" pageHeight="1100" math="0" shadow="0">
      <root>
        <mxCell id="0" />
        <mxCell id="1" parent="0" />
        <mxCell id="kS9kcs_yrtDZrmXysHUf-3" value="&lt;h1 style=&quot;margin-top: 0px;&quot;&gt;Pseudocódigo&lt;/h1&gt;" style="text;html=1;whiteSpace=wrap;overflow=hidden;rounded=0;fontSize=20;align=center;" vertex="1" parent="1">
          <mxGeometry x="225.5" y="30" width="330" height="80" as="geometry" />
        </mxCell>
        <mxCell id="kS9kcs_yrtDZrmXysHUf-8" style="edgeStyle=orthogonalEdgeStyle;rounded=0;orthogonalLoop=1;jettySize=auto;html=1;" edge="1" parent="1" source="kS9kcs_yrtDZrmXysHUf-4" target="kS9kcs_yrtDZrmXysHUf-6">
          <mxGeometry relative="1" as="geometry" />
        </mxCell>
        <mxCell id="kS9kcs_yrtDZrmXysHUf-4" value="Início" style="strokeWidth=2;html=1;shape=mxgraph.flowchart.terminator;whiteSpace=wrap;" vertex="1" parent="1">
          <mxGeometry x="350" y="1150" width="100" height="60" as="geometry" />
        </mxCell>
        <mxCell id="kS9kcs_yrtDZrmXysHUf-5" value="&quot;Quantidade de convidados insuficiente!&quot;" style="strokeWidth=2;html=1;shape=mxgraph.flowchart.display;whiteSpace=wrap;" vertex="1" parent="1">
          <mxGeometry x="610" y="1470" width="190" height="70" as="geometry" />
        </mxCell>
        <mxCell id="kS9kcs_yrtDZrmXysHUf-10" value="" style="edgeStyle=orthogonalEdgeStyle;rounded=0;orthogonalLoop=1;jettySize=auto;html=1;" edge="1" parent="1" source="kS9kcs_yrtDZrmXysHUf-6" target="kS9kcs_yrtDZrmXysHUf-9">
          <mxGeometry relative="1" as="geometry" />
        </mxCell>
        <mxCell id="kS9kcs_yrtDZrmXysHUf-6" value="pessoas &amp;lt; 50" style="shape=manualInput;whiteSpace=wrap;html=1;" vertex="1" parent="1">
          <mxGeometry x="360" y="1240" width="80" height="70" as="geometry" />
        </mxCell>
        <mxCell id="kS9kcs_yrtDZrmXysHUf-11" style="edgeStyle=orthogonalEdgeStyle;rounded=0;orthogonalLoop=1;jettySize=auto;html=1;exitX=1;exitY=0.5;exitDx=0;exitDy=0;" edge="1" parent="1" source="kS9kcs_yrtDZrmXysHUf-9" target="kS9kcs_yrtDZrmXysHUf-5">
          <mxGeometry relative="1" as="geometry" />
        </mxCell>
        <mxCell id="kS9kcs_yrtDZrmXysHUf-12" value="Verdadeiro" style="edgeLabel;html=1;align=center;verticalAlign=middle;resizable=0;points=[];" vertex="1" connectable="0" parent="kS9kcs_yrtDZrmXysHUf-11">
          <mxGeometry x="-0.1675" y="-3" relative="1" as="geometry">
            <mxPoint as="offset" />
          </mxGeometry>
        </mxCell>
        <mxCell id="kS9kcs_yrtDZrmXysHUf-16" style="edgeStyle=orthogonalEdgeStyle;rounded=0;orthogonalLoop=1;jettySize=auto;html=1;" edge="1" parent="1" source="kS9kcs_yrtDZrmXysHUf-9" target="kS9kcs_yrtDZrmXysHUf-15">
          <mxGeometry relative="1" as="geometry" />
        </mxCell>
        <mxCell id="kS9kcs_yrtDZrmXysHUf-9" value="pessoas &amp;lt; 50" style="rhombus;whiteSpace=wrap;html=1;" vertex="1" parent="1">
          <mxGeometry x="360" y="1350" width="80" height="80" as="geometry" />
        </mxCell>
        <mxCell id="kS9kcs_yrtDZrmXysHUf-13" value="" style="shape=image;verticalLabelPosition=bottom;labelBackgroundColor=default;verticalAlign=top;aspect=fixed;imageAspect=0;image=data:image/png,iVBORw0KGgoAAAANSUhEUgAAArkAAALVCAYAAADEaPmVAAAAAXNSR0IArs4c6QAAAARnQU1BAACxjwv8YQUAAAAJcEhZcwAADsMAAA7DAcdvqGQAAMWZSURBVHhe7N0xb9vG+wfwL/9vwEvavgHJQFzlDRzRX4FuspegKLxqIwt0kBdvApIA2rKQQ2HLm1ehMbKE3AI0gfQGosqAyTeQ2IPzCp7/QFI6UpR0lOVYVr4fgEhMnu54xyP16HiUrNvbW9nZ2cHXr1+xs7MDIiIiIqLH7v+KK4iIiIiIHjsGuURERES0db6rINe3AdsvriUiIiKibbOWINe1ACtdGETeIzttZD8GQjdtdLeYiuZh+xEREX031hLk9gQQASKvuGWztAfAoF1cq4kB2y6u3CCN9N/dGlDfS/6v0n9pObYfERHRd2MtQS59I3sKgALqAGq7ybpG+i8tx/YjIiL6bswPcmPAd6d3eC0LsF0gLqarIPa1/OzkrnE21cEN9YSAa0/LzdLmhNPtbgjE4TTv4n6aTKfwbcCqA8OhVm5aNqCVZyftMilHKzdXBxjWo7IGUAOAOqAA7NWLCQoNne6obQHF/cvtXKHhstv5tjtN54babX4bCNPE+q1/vUEse7ZMzNm/VcrNLKrHDIP2IyIiosfv9vZWRESyf3VRlP87cESg8ut0kSeivOLaROSJKEdkkmUk4ikRQMTTywlElNLSZasdEScorNT2CUrES7dHwezrZcn+iST7pBbUTyIRhWkeXlpuECX7DWjlVqzH+kTaTmWr0h3Xy/VUsiO5tk8PUiby0gMUaJVPD2LgiEBLK8H0QGRlB17yd64Mp+QgRCKOmu5flXJN6kFERETfnfkjuQBqtfzfzeNk8GsVr4+ATi8dRAOAGtA+n83P7wKH51q6VPMYGHULK1PqEJAB0G4mf9eas69fGzWd17vbSMpu1qYDg1GabJV6rEe2B5paDRgIkLYPEAJHDaBXaKhmG+ggPyStvLRha8mc1sPj5DXZnNacIRAM0gZJ8yse4O4IOC9OjK4Bx4dAVxtmNyq3Qj2IiIjouzI/yC3earcAqwUMi+lMxMBIaTFWJo1fdONh8lzQjBrQGJbf/d7EaZWr1GM9mkDQAPbr2u37wjyJ+ArAWeHgpsv+GTC60jOswCk5yLoQGGbTBQpqu8BwXFy72L3Vg4iIiB67uUGuWwfQAaL0mxNEACkZeTUyL7CLgVFh1Z4CrsrmU84LlDfUg9aj2dMOWgScd4B+fXoAagdJQDpJU1gWfgXFXTQBNSqfLxtfVf+mgwerBxEREW26uUEu0mdyskG3OAbcVUdyARx7QFd/HigG/JL82h2g30rKm0jTNjrauvsy1J5rykazV/gq1Qerh28Drq81dDqXIqcGBEiewssFnHH6+pmPI+vTaQCtQrlxDLT6QKdqUPqA9SAiIqLNNu/BsyhInvfJhsWUEgm0dcVnhEqXwrM/kaflqZIHzpzig2cyfQ5pkk+aVhc4JeWlaXVV9i9Lr9fbyZ6RSh8syxYv0vbBmT4flW1LMltej7XzVLLTeiXmFRyUpUuPbK6B04fHnKxRAq1hlYhXkraswTLFRtafSKxS7uQ1C+pBRERE3yXr9vZWdnZ28PXrV+zs7BRj4HvnWsBeBLTL5mkSEREREa1g4XSF+xb7wJkCDhjgEhEREdEafdsgN87/BkC9DwQlX7NFRERERHQXDz5dgYiIiIho3UpHcotfOcrlfhYiIiIiuh+lQW7+sXgu97UQERER0f0oDXKJiIiIiB4zBrlEREREtHVWDHJjuK8suJfF9UWm6YiIiGbFN8U1RNtv3f1+3fk9FisFueFFHWfPAvSeFrfkmaZ7rOJLF/YrC9apC/8GiD/asC74U7K0mcILa6v7Z/zRhvXKgnXqFzfRI5Qdz/o/PJ70eFW97q673687v8emepB76WL/k4Pg92ZxS55pujnCCyt5w5q3VOg09+LGR6sPdP4SBD+OcPS3hfp/jZXr+yBu/CRIn7c8dBvTGsV4+wlQP9SLG7ZG7ZcB5NABftwtbqIqbnzYG/BBITue6ueD4iaih1Pp/Kh+3V13v193fo9Nxe/JDeG+2gcOZcnorGm6xeKPNlo4x+CX/M9FzFtPK7jxYf89RudFD3p47p9aGP96t+NH9K2FFxbePmW/vYtNur7yeNKm+Rbnx7r7/brze0wqjeSGF/tG0w9M0y3z7r8hGk9mO1J0DRw+rcE/TUYc7Y9xuiWEWzIKmQzX23A/ptML0sWeM1IZX7qw07ytV8l0BPfUhp+b0xIjzOVnz5l7HCO8sPPpJvu7qhDuTN1XdD3G8NnzXIALhBh/dvD8qTaifprVwYb70Z+Wn7XhpTupn3853Z61X1iYDzS5tfzKhn8Twj3NbjW70I/KzLGY234x/Issz+ky2z6mx22JB69vSdrSfqqdEwvnx3/j9ptYZ7kxrr4o7P1QyLPQxihruzntbHrcjOl5vLJgn7pJ/0n/di+TD5j5Nii/riWWt4vx9S/t0/X3Qwzf17W2mXM81nldK7RLdg4lx3OazPS4VTGTZ+l5tLydYdhfjI9H2b6tWt97ul6ZtouxrTk/DK+7hv3epB6AeX5r61ePwe3trYiIZP/ONXYELx2JiuuLTNMtFYjz0pFAREQi7f95wRsl3nVxHcQZz65Tb4Lpfl0H4rwsvjYS740S50Mg0WR9JMEbCArleycQ9cabprv2RJ14Woq0jBMl3jjSyo3EO1GiPtyhha4DUS8hmNn/6qIP030pa7dsPd6ktU+Pb3Cd1jnXLoE4LyE40dpFRKKxk6ybrkpce5N6OONkq74/MnZEnaRl6caOOIX2806UOB+0dpZIvJPZ+hgdN2MPVV/zfjo1/xySB2u/NZd77Yl6qUSdOOKl7SsiEo2TtJM1xu2cWnbcTKXl6vs26UPZ+ZWtNbyuGbWL8fVP0vYvW69Z93WtpF2isSPqRInS30uqHrelzM8j03YWMesvRsdj7fVd8/WqarssU9IPHuX5kbPgultS39J+b1oP0/zW3q82m1mQm755LD2wpulMjB3BS0yX4gEVSU+A2Q402wkjcUpO4uKJEn1QMyeJyJwOVTR2Zk5E72R230QM8/tGvBOtjUvaMkkzbafcRa5Yj3kXy3kXhrTNZtNLcmwrtN8kWLouz22ukuNm7IHqu1I/XbTtodpv3eVmH8Dya0Vyfdi8nScWHjdT0dxygzcoBIem17USZe1ieP0TmbZBMa1urde1BeVFH5RWlxWO2xIrnUeZ0nZOLe0vJsdj/fVd7/VqjkXtstD2nB85847Vgnzy/X6OYj2M87uHfrXhDKYrxPD/OQJ+O0f7SXGbzjSdmfhmBPVbBHkhiH5T5ZOmb64w+mlv9lY7DnGg78PNO4x+3EVhZi/efmlo6WK8+6+B52VTLJ60MfizPfkzvvTztwReWbD6Z3Ceanty46P/Y3EaQOp6jOFGPByTTEuIXgjkLw9qZtpCWg+tPaPr6RSS+LIPaMclvhnB+bVdaGcAqAFoYLfQL+KbEZynzZL0AC7f4uzzGfb1Ns6Wv48wLCRv/znA8ZMI0eVruBc27NPZ2zlGx62Ch6mveT/NuR7njlXRQ7Qf1lxueHkG9dvxbB9GjDHSc924nbVXLzpupi5f42zO9eDqC/LTsgyva6btYnb9S6XXprl1XfN1Lb7so1F6DiUmD+yscNwWMz+PjNs5tbS/mByPtdd3zderFdploW05P4rmXHeN+71hPYzzu4d+tfGWjeRGH9ScT395pulMld16KCreOhEp+YSTrptJN/OpJRBn3qeY62AytJ/U05EgN/IUzY5uXHuiivshMv9T80Moa6tiu+bS5OtZPEbeSfETd2pOWyxsh7JjVknyaT/Lwfi4VfAw9TXrp0XFY7Xc/bdfudXLLZvmICX92aydpxYeN1NzzrWyUSmT61qVdimt88z1LzE7alYwp2+vel0rrWuyJX88y+pwJ2bnUaV2Ti1th7K6FI9HWZo7Wuf1apV2WWhbzo+Cedfd0jokW3L93rQepvmV1nXLLR7JvfHReg94f8z/hABUSGcsxNtPxYnXs6Jr/XNHnHzi+fds5us6wsuz2QfYZj5hNbGHPvxLbfL1TTrZ+5+3WjrA+bWHZjaaeRPCv2jhCIVPlk8O0PjShavlF9+EcE9b6P98l9HusGTi/Wrim9FMWwHAu/+SB/tm0ty8Q39SzxhXX5KH0xIhxp+B4fvX2kMMWfuN0Zn5arXZT945T5+jcf0OxRombag/FBLCfVXykMhFF6Nnz3P90ei4GXuo+pr306nsgaziejxo+6233OR4nP2rPURzkzwc1bruTJ+ENm7nzJLjZuqHPahPb/MP+Nwk9T0rjEqZXtfM2sX0+pe4+qK0tEnZtt4ua76u1Z40ys+h0xb66cOvwCrHbRnz88i0nRPL+4vR8Vh7fdd8varcLktsy/mRM/+6a9zvDethnN/a+9XmW/AVYjH80zr6P0dLvirDNJ2Z+KON+vvCoPmzADJzEgK49GH3syF2BfXsEI0vRzj7DDiHgt7TGO6rOs7S5Mm6fBnZukScdKBPWfkKzuE5emnAN0lzWsfR5/TPnxQUgOHnIfCTB9FvF9+EcP/Zx9kkrQPv12O0c/lVdBPC/nsfQyh4hwO0y263LZV8xVvWLrMcBC96uDq1JvVUv0UYPHkNq3+W1PMPwP77KNmPvwZoX7uwLp8j+uEtWu/PtGPSwfnv2i2vSzfJY0ZSZu4o38TwP7TQ/zSc5Of81sHxL/n87H9HSftnflJwfu6g94ueW4XjZuLygeoLmPXTGz89PmUcRC96SZ4P2H7rKndyPj/z4KG/uF1g2M5VjpupGx/uP8n1CVBQv3Vwju7s1xEtva7BqF2Aqte/5KnrVj/rz4B65qHzvzaaerCz5uvabJkBzv93hZZ+fXlieNwqMTiPjNrZtL9UPB7rrO/ar1eG7VLFNpwfptfd0rzK+r1JParkt+Z+9QjMDXLjjzbq/x0u7aym6R6VSxf25XMMygJrKhV/g+8O3CTfW33pfnzP319J385jvV7x/KC7mjtdofbLwChwNU33WMQ3MfC0h8Mv3a0cur8v+hSH78H3Vl+6D/NvZxKt0+O8XvH8oLubO5L7vQo/2th/P4R6FnAk18TM7S3ttsg2+t7qS+tXckuzeFuUaC0e4/WK5wetEYNcIiIiIto6c6crEBERERE9VgxyiYiIiGjrMMglIiIioq3DIJeIiIiIts6KQW4M95U18xvzs0zT0bcUr/mr0dadH9FDWnd/Xnd+ph6q3G2x7vZbd35EtNxKQW54UcfZs2DpV3qYpqPVhBcWrIuwuHqu+KMN65WF+j9+cdNK1p3fpsnql1tOy+qa/HxslsaucEy+Bf1noNf1k9CPwfd6fjxUuZvqe+0Hy1Rtl28t/ujCzl1/y392dt31WHd+DyW51rszP+Gb+V7eF6oHuZcu9j85CJZ9h6xpugXiSxd22vhJ8ODD39LfV64uxttPmPm97kVqvwwghw5UyW9yr2Ld+d2H+CaE/3G1C1Z0DXh/CeSFtsz88Enys4v76CBK03Swv4EXC6V9Gbz+/6n40oernW/WqZv/LfmHduPDLv2QUeb7PT8eqtzN9P32g8Wqt8u3lPyS6h7Oc9ffsu/3XXc91p2fgUrXNVMhxp8BPHu+5Kd6l78vPHq3t7ciIpL9u1ggzkuIMy6uLzJNN1/0QYk68SS41taNHVEnnp6MKgre3O24FK07v3WJxp44J0qcD4FExY1GAnFeOktfG31QgmKfvPZEvQny6x5Mci7ixJMo9/9CqjdK1IkjwfV0SzT2knW5lA8n+qBEfSju+Xqtuz+vOz9TD1Xutlh3+607v233PbXXvVzXrj1RC2Mws/eFbVBpJDe82DeafmCabpF3/zXQ+bONpvbJrfa0h0FhJK042mu9suHecRRtJs9TF+7MCHJyi3p6O2W23OQ2lQ23cNtFv51dvCWejAAmc5mn5euf8sLctrnznW9CuKda3umo3OzPJMYIc/tnl+dZJb8l7ZKl87Vb/Pn6ry4ZjbTx+mYXvT8H6P3SXPJJdo6bK4wwQkurx+wdhBjv/gO8P4qjuwC+XBXXLHbjF27NzS53aRv188GkHfT/I+2D3R/OMfizh+aT6Zba0zYGvwLdtNzZW1paX5y5vbe8X5mcH0D6q02vLNTfDzF8X1/SJpt9fsxcW+aeH4YeqtyyPHmdrJbfknbJ0q33Orm8XUyOh5Z66f5VuW5kafc/AWd9Lc+ZspfXI2PWT83ym8mr5LgZt1+F65pJuTnXYwzh4HhJDLbofWFrGI/kjh2BwciWcbolog+OqBNHvHEkkTaamzNO0uijvdl6Z6VPRpF4b9LRv0mekQRvIHipjWhdB+KcqGTfJusi8U5mP5EFbyDqjTaaeB2I81KJp+/ztVc6Qh28UQs+iUXi6PukS9vFG+ujco6oEyWqcGy8E4h6403rW7YvpvlVaBfvRInzQUsnkXgniz55LpaMOipxtH28k7Ej0PvW2Jn9pFvWVpKm3ZSR3GtPVNbf9P9PLB6xLo4yBG+Kry8fdTHqV6bnh0jaP8rWz7OB58e6r1cPVS6vk+X7YppfhXZZ93VyakG7mB6PCvtnet0QmdO2cy2qh2E/zVmQX4XzyLT9jK5rFcrNRB/U4vegpe8L28MsyDVtBNN0VVxHEo0D8d6o5CIz2RCIM+9WaqWTZCr6MOdiWcjPMy43EqcYGJWe8CUdfezMXPByZsrKry975dKOLyUBWoX8zNtFuzhqt8dXch2Ic4J8QHovkmAwV785x2juxXsTFY93Qf6cKGmD9FguPedLyzE9Pxb3w1IlfU5fX5ZPsT+XKtbDOL81X68eqtyZPqHhddIoP/N2WeN1sqikrCnT42G6f9WuG8X2WmhBPUz7ac7cbVXOI/P2W9RvElXKnXpU70H3zGC6Qgz/nyPgt/OSSd8603QVPamh9rSJ9u8DHH7p4112i+HyLc4+n2FfG+KfLH8fYVjIZrkY7/5r4HnZ8P6T9nSaxI2P/o/PUfo43fUYwx93p3/fvMPox93CLYAYb780cJBroxp2fxyif5nefrjxYf+7h/NfFtw8uB4DJQ8yxJd9NH5tz73toE+oz27t59qufwbn6bR2xvlVaRcA7T8HOH4SIbp8DffChn065/bfMk+a6P0pCH4Gun8nDyfe21f1/LQH/XGE+GaEhnZ7P12Lt5+KtyaXCy9K+nFucVG8Ybcu8x+ySM6JyS2vmyuMftorHOMQYxzm+rNJvwKqnB/TPlRs7bk27fxY8/XqocrldfKO/aBKu6zzOlk0p12AKsfDcP8MrxuZ6Ho4e62YZ249DPtp0bz8qpxHFdpv6XWtSrma5u9yp+miW2XZSG6UPlgz/5NGwjTdUnM/nRQ+DS77BF9ZIE5puSJyHUxHCa/nPVRkOMowr36TkYFIvDdzPrlp5n1SK95e1rbkbiMlxyv/oFGSJl+2aX6V2qXU4tvmpoIPjqiX6a2ipWWWK92HkmNZ1jaVRiE2wvx+H31wcn2srL7FES3TfiVS3qbzzo/gDWbTLrBx50dZXe/gocpd1F94nVyeX6V2KbWm6+ScdhGpeDxmzO5fadsUR8InTNshMb8ehv20YG5+ZW0yT1naOe239LpWlhdVsngk98ZH633yYM3cTxqokM7E9RjDz0dws0/rSL4Gyj3dx+i34+mnwafP0bh+N/MdcEna4qRyE03soQ9fKxc36cMG/7ydrntygMaXbsn+tdD/OT+KHV6ezY70zfuk+PQ5nE9v4X98jfHTXvkn/Ym45EGGRO1JA8P3r7WvfkrrcNpC/7OT+2Tr/Dp90Ci+CeFftHCE/Cdu4/yM2yWEO/MQV4zwoovR0q87Wa75Sw+DFxE66KL1d7EcAzc+Wq/sQj8I4V7OjhjVnh4CWtuEH23U3zfu9LV5314Txz/3YV+Ek3MpO4de4zg3GhBd6+MGcTLC9e/ZzEiwSb9CxfPj6ovS0iZl23PP8w08P9Z8vXqocnmdvGM/MG6X+7xOzm8XGB8P8/0zvW4AyShof84I76xF9TDspzkL8qtwHpm1X2Lpda1CuZnk4T17s77+8SHNH8lNPoEu/xRhms5M9CGZKO6cQPAyXQqT+Seuk4nlKkv38i5fGSXp6ICalvtyzoNM2TzQufsXJV/JkS65UYHCOt3CdrxOvhJkum/6UvjkPE5GM7Ptyahm9vrsU3Jy3KZ1UKJO0v0rfOI0y8+kXdJPplk5WtnOh7JP9Q+kUI/cAwQFUTpynKTTHkx5ZPS+qd7kv7pvYqz3wWSOfNZO0/5s0q+qnx+zfbCwj4/i/Fjv9eqhyuV18q79YFm73MN10qhdKhyPKvtncN3Qy8gvhVFdo3pkDPpplfyWnkcV2i97xUyfKbn2Li1Xl+3D8rsc3wvr9vZWdnZ28PXrV+zs7EyC3+TLmA9Lvvw+zzQdEW2oSxd2/wyN3yL0Fs1vJCIiekTmBrlE9B248WHPeYBB/eQl31Vd3EBERPQIMMglIiIioq2z+MEzIiIiIqJHiEEuEREREW0dBrlEREREtHUY5BIRERHR1mGQS0RERERbZ8UgN4b7ypr9jeoZpumIHo+YvyRDRES08VYKcsOLOs6eBbmf/Cxjmo7oMYg/2rBeWaj/4xc3ERER0Yap/j25ly6sPhC8WPK74abpyiz4gnoAwLMA8nsT/qmFo8/JKvVbhMEvtfQ3tfdxlqX9yYP8eQD/tD5JO8tJ9nNuuQreX4Pc763HH23U3+spZ9MkI9n16b5kfnLg/dFbIT96cJcu7JvjtK8RERHRpqoY5CYBJA5lyeisaboFbnzYf4/RKQTJ/qmF8a/TfOOPNlr/AUPkf1o4/mijft2B/N5M8voHGGTbL11Yl8+n2z7sYvB7Wkqa9vzPNrIwJr50Ue8D0YveZN3EpQvr3z14Px5h/LSkvsWyJ/mNyoPYZfnRgwovLLzlcSEiItp4laYrhBf7RtMPTNMtdD3G8NnzwihwiPFnB8+1fKNr4PCPczif+/C1uZLR9RDO0/TV12MMf9ydbAsvzybbwg9HaGTptLR6MFt7+hyO9vdUCLd/BufXNg5+UBjdxMUEM2UDQO1pD8GzIfqXxfQG+QFJulML1isL9sd5aZZLbr/bcD+6sF8l+VmvLNgXYS6dP1NWCDdLn6YNL9K/T+00LxvuR3+6n4U840sXdrotWWy4JXXJpghYr2z4NyHc0/TvUxeFHBFeZGXPz8+YXlZW3g1w9UVh74dpMtN6LHXpTut5OW03vWydebkx/AutHuky22/M05m1c4ww16/sOXPzTcslIiKq6Pb2VkREsn/nGjuCl45ExfVFpumWiD4oUR+SXII3EGdcTCEiEonz0pGgkF4kEu9EiXddSC6yZFuSj15WdB2Ic5JflwneQPAmSP4YO9P/a/L7tXi9SX4iInIdiHoJwcv59TAVvIGoN8H0eF0H4pTkG7wpW5c/LjP7/9KR4FpErj1R6XHKtqmTdJtu7IhT0lbJ65P6OuNke6790mPkjSOtHslxLraxkXT/vLQsEZFo7Ig6UaL0vl21HksF4ryE4MSTSMszGjvJumxFhXK9EyXOB61dJBLvZPZ8MkpXoZ29E4h6o9Xj2hN14uXSiGm5REREKzAbyb3xYfdH8P4quV2vM01n4N1/Qwzf12G9srD/KT96O3HzDqOf9tAEUHt6CLx/jThd38chDopTAbRtM9MEUu/+G+KsPx1Ran24wvM/BrOj0pcu9j85iLJpDj/sQX25KiQC3v0HHD6dbY3oeojGE229YX4AgCdNDF4I5EXJdIdKYrz94uH89+b0eD1p4vmzfCogxNtPDewWyiqOal59UfD+l+x/fDOC+u0Yzew16XECQrj/Ap0/e9NtmR/2MPrvXWFlNqofIHoxQC9ty9ovg8m8WP+ft3j+5wDtpzWtHjW0/zgEyvJb5MaH/e8ezv/soa0dt9rTHs5/BobPnqdlrFCPZS7f4uwnD9GfbdS0PGtPj+Ghj3c3WL3cyV2BGtp/LphusSBdlXZu/ykY/K7Vo+SORs6CcomIiFZhEOTG8P85An47XxJQmaYzkUxLiF4I5C8PambaQup6DPx8kPz/SRuHP53h9WX5lINMfNmfvmaGVu4LQfSbwvDTGJipTwy3fwbgDPXsFuvfRxh+HhduoYcYf54NDoEYb3OBu2l+a3bzDqOZdorx9ksj/wHh5mryYWIqxFj/IHHj5z5Y6EF8rs0v3+Ls8xn2C7enJ3VOs9PFNyM4T7VAXHfjo//j/P6xMLAqEV/20fh1Oh+7SP1QT/6zQj2WiW9GcErLrgFI+1HFctt/DnD8JEJ0+RruhQ37tHzawNJ0Fdo5vvTzUz1eWbD60ylCuqXlEhERrWrZdIXog8rfKp3DNJ2RObfqi7f4i7fLs9cVpxzoZl6ju/ZEFcrN3YJfsE7SW6+5W/rpbeai4uuLf2dm8lu3sTNzm7nstnKx3UVKjlHu70i8k+n0hFybl5W5xMJ2KDlmicXTUuYprWuyJX8bfYV6LOOdoDxPvY53LjcQx2g6USGdYTsn1wFHgmu9hHx/WMx0/4iIiBZbPJJ746P1HvD+KBtd0pimMxTfjKYjZpr8rf945nY5nh7D+dRF6z/k10+EhRHUvPiyDxTKbf7Pg/r0djqieuOj+8lBkE0r0Oz+OMT4evp3fDOC0keNb5KHbPa/eNNpCRXyS4QlD4KtJrw8y0+ZQGF0PBVd6+ODcTJS9+9Z7hjljtnNO/SRjfzGuPqitfnT52hcv0umlWji9EEv/eHBRGHEuOjJARpfunC1h/iSvFro/1z9rkLtSQPD96+1B73SB6hOW+jrDz1WrscyIcafUV72P2N0sv5hXG4I91VxP2KEF12MJlMuKqSr0M7Orz00s1H8mxD+RQtHk/6QMSyXiIhoRQu+QiyGf1pH/+fs+2fnMU1novAdtzPmfJ9t+r25QPZ9s43c133NfgctpnklKQrfZ6tvS75d4OizgvMMOPs0zWfy3byXLqy+9upDwfNLC/ufJqtSCs5vHfR+0ffVLL/JHMWbEPbf+xhCwTscoD0nYF8sX98sf31/cmVe+rD7WXsrqGeHaHw5wtnnJN3ev4XvK37yOtn/nzzIH0iPlfa9vzcx/A8t9D8NJ3k6v3Vw/Is2JaHQBlP5YwMkbeL+s4+z7HuQf3Lg/Xqcm1NbRXzpotU/m/Qv9SzA+f+u0FqlHqbSr7WLfniL1vusbAX1rJOfMw3Dci9d2P+OMPys9fufFJyfp/2vUjqYtnNyPZh8J/VPCgpI8v/Jm37NX5VyiYiIVjA3yI0/2qj/l//u2TKm6YhovvijjRbO1/BBkYiIiLAoyCWib8c/tYE/7vptGURERJRhkEv0kGamZfDnnImIiNaBQS4RERERbZ3F365ARERERPQIMcglIiIioq3DIJeIiIiItg6DXCIiIiLaOisGuTHcV5bBb8ybpnsc4sq/YkX3iceD6O54HpVjuxA9fisFueFFHWfPgukvYs1hmu7bSn5a1/44+aHepeKPNqxXFur/+MVN9AB4PO5TCPeVO/0Za9pa930eZflbp+vJf9X8wgsL1oV5j77vdsnj+UbrNTlPVjhXtlH1IPfSxf4nB0H6M7pzmaZbIL50YZ+mB+uVBfvCh39a/L37Cm582Kevgf8NMKjw06G1XwaQQwfq54Pipm/v0p12YH05dRGu2i6PzEYdj21zc4XRT3v5n01e1Y0PmxfZjXXf51GWP37cLW5ayWr5xXj7CVA/1Isb5rrvdskxOd94Hm2WdR+PNedX+2UAeSGIflPfpg9vuIpBbgi3fwbnsLf4pDRON1/80Ubr3z10/hDIi2Q5fzpGH4erf1H+kzYGf/ZWen14eYbGkw34ydWnPchfHtRP3qRd5IUg+HmE/W8y8rAZNuZ4bKNKQcR88WUf4EV2o933eRRensF5uuq7wKzq+dXQeyGVfy77vtslZ8n5xvNos6z7eKw7v0x0Pfx2fXiDVQpyw4t9o+kHpukWefdfA50/22hqAWntaQ+DP9t6MgAxwo8u7Mmopl0+Bzg3Arrg9tBNCPdUH+5PRkivvijs/aAnNCwXSIL+dETa/hgXN1ZWdlI0f+nA+Tye1Gt6y8KGr9fpNF/34mi59cqGO2cfZ9KeunBnRtZjhBd2vl3m5GfkXo6HGeP6GpRrcjySNDbcXH4W7JJbrTP7dtd2zlyPMSyuqyo91+rvhxi+r2v7mO//udtqaR31dWXteGeT64AN/9KfnJeTY1G4G2Jy3FDxeMykndevHv15FKf5J1PEcmUXUxbbpLS+5vkl0wCm+c2tw4O0i2bR+cbzaE4/SMykve/zyPB4JAzKrZpfpf6XnSvF9d+h29tbERHJ/p1r7AheOhIV1xeZplsi+uCIOnHEG0cSXRe3TnknEPXGm6a59kSdeIVUmmtP1JuguDYxnpaZicaOqBMlqlCnSuVeB6JeQvBSibegLqaCNxBnXFhZVv61NynXSesUfVCiPqQ1SesbFPdp7IiTpRERkUi8N0qcD4F2LCIJ3kDw0pFJa14H4pyo5JhN1kXinWhlVnFfx2Mpw/pWLXfZ8UiPrXoTaO0XiFPsN8bHzcBkn8qXlY6bSNKGJ8v7e/BG5c7H5Ph6d75+LBaI8xKCE+24pWWjrOxlx834eBj2q205j649US9VSdlJnpM1pu1nml9OJE7hnJ14iHapfL7xPJrpBw91HomYHY9K5Rrkt0r/W7b9O2IW5KYXl2UHwjhdFdeRRONAvDcqOcjF7UVjRzAviC2eVLq0U5RskeiDWpinyPJy1ycS7yR/0Y7GTtLuxcA33aeyOokE4hTymSicINEHNRtUy2y64n5NrHLCPeDxMK1vqUXlLjweIiKROCV1Dt7o55T5cVtFvqw7WHD8ioI3ELzxkjfqsnNz3ea9Cc97w1l43MyPh2m/2pbzSNIBj7JXT9vZvP3M8iso5lFY/yDtoll6vi3YzyKeR/d4HmUMjkelcg3yK7Ws/y3b/h0xCHKj5FPE0pPGNN3qiidONPbEOVEzn4ZLT4BU6SjoohMn3abXa5Vy1+Z6diSg9NPvkjolbxizIwmTZXIyzgbVpa4Xj5BXPeEW7fv9Hg/D+q5Q7qI6icxrw0icE21Uyfi4rSKYP+pVVaVjno4IGae/m0XHoezYL0pvfjwM+1VpH0hVatPEon2/3/MovStR+n6g9Wnj9jPMr2jslL7mIdtlyuB8q3TMeR5NrPk8mlj22qrllq0rWKX/LWzr78zSIDf6oOZ8WsszTbdU2acdkZkLQlKeI8G1XuKyE2D+ravihU3bIt7JtEOtVu4aGZwUmeKHgpw5F/9ZgTilx0NEroNpcD335J7zqX6JhzseZvVdpdyl7VB2TIrnQ1madZl7DKubH5AUZLf25t7OW7+5H8bn1H/hcTM+Hmb9at4+PL7zKGnnsjfa3D4Zt59hfgWLBjXKX3P/7TIx91hP8TwqepjzKLP0eFQsd1l+q/a/srK+V4sfPLvx0XoPeH+0sfAZPdN0Jq7HGH4+gnupTay/CeGe7mP023Hu2xqcX3topk8Pxjch/IsWjrDg61hu3s39upbakwaG719rE+bTid6nLfQ/O3iuPURXrdwQ/jofOrsZGX4dTogxDnEw75sknj5H4/odinuUtLU+eb+JPfTha8cDN2nb/PN2uu7JARpfuiXHrYX+z+eVv9Hi/o7HMob1rVzukuMx74nu63H+IUPj41ZdfNkHjPrWcldflFaXGPGlD7u4fzch3H+62PtjgPaTGtp/nuPwv/qC82T6MNHihy4WCTH+jPK+9c8YnZmvPFxy3IyPh2G/2przKGnns3+1h5BukodxWted6bcdGLefYX458x++ebh2mTI533geFfvBw5xHmaXHo2K5S/Nbqf+FGH9uYHfFOm4b6/b2VnZ2dvD161fs7Oxom2L4p3X0f47mXEAypunMxB9tvEYH+G8fZ5/TlT858H49Rvupnn9S7tEkjYICMPw8BH7yINm3MFy6sPpn2us0zwKIdjLGly5a/bPJ067qWYDz/12h9fcRhlDw/hqg/cSw3MxNCPvv/eT1hwO0V/7GiRDuq33ka+IgetHLf7CYW18HwYvCV7rdxPA/tND/NEzrrOD81sHxL83Ch5U4ObE+TVoGzuE5ernjkV1slx03c/dyPIyY1NewXKPjEcN9VZ8cW+dQ0HuanAv198k+ZOuAKsft4cweOw+d/6XflnLjw/77aLLvyXHM92/12+z1JGuPsm3GLl1Yl88R/fAWrffZ/imoZx2c/661n9FxSxkfD5N+9fjPo0m/febBQ9+gvovbr1J+ub5VlL9efut2WcXsPvI8eqjzCMuOR6ZCucvzM+x/c9sZ36SfbrK5QW780Ub9v8OljWOajrbApQv78jkGM5/Sie5Z9ob+k4foz9XvGMUfbbRwvvqb+zrwPKKHwvOIvjNzpyvUfhkYBa6m6ehxi29i4GkPh1+6d7olTrSK8MMRhnAQ3OGNGQDe/QccloyofCs8j+gh8Tyi783cIJdIF122YL2y0P+xMzOviOh+hXj7CXf6BcXsi9ePPg9x9HfyZeoP8ebI84geDs8j+v7Mna5ARERERPRYcSSXiIiIiLYOg1wiIiIi2joMcomIiIho6zDIJSIiIqKts2KQG8M1+rUU03REREREROuz0rcrhBcW9pH/tbAypumIiIiIiNap+kjupYv9Tw6CZYGrabo54o82rPT3tZNlDd/Hd+PDPvWLa4mIiIhoy1QMckO4/TODL5M2TTdf7ZcB5IVADh3gJw/esyHG18VU1cSXfeDng+JqIiIiItoylYLc8GIfZ88C9J4Wt+SZplsuDZZ/bePgB4XRTZzb6p8mo7z2x2x9CDcb+b0IpwnTX2mpvx9i+L6eGyGevjYTI7ywYWsjyO5MGn2k2YZ/E8I9Tf8+daGVXFEId6ZORERERFSV+ZzcSxdWH4he9Bb/5rVpOgO5Ob2XLqzL5zPze8MLG1f/G+R+2i+8sPD2qRSC7Bj+aQv4I5825yaE+08Xe7+e4+BpLdn/mxj+Py30fz7H4JdCjW582H8fYQgF5/Acvac1xB9ttFCS1sRNCPvvfQyh4P21YD+JiIiIaCGzkdwbH3Z/BO+vJYGraToT6ZzeKAtqf9iD+nJVSBTi7acGdgvB4NUXhb0f8utw8w59HOJgQeDo//MWz/8coJ0FuADwpIb2H4fAf+/yiQHgeozhswDRiwF6T5NX1H4ZrBbgAsCTJgYvBPKCAS4RERHRXRgEuTH8f46A386XBF6m6UzEcPtnAM5Qz6YN/H2E4edxfirAzRVGP+0V5v2GGJcFs9djDH/cnR983/jo//i8fA5x+tqi+GYE52lzfp5ERERE9CCWBrnxxxaO4OF8yeikaToT4UUdZ8+C5MEzbfF+GuFK+4aF0gfJLt/irCSYDS/PoH6oF9aaiOH/O4L3v9nw991/mB0xJiIiIqIHtzjIvfHReg94f7RngsYc03Qmbnx053z12O6P+W9YiK6H2tYY8aUP99/yYPbqi0LjSbZ3SVr7VPtasicHaHzpwr2cPvAV34RwT5P5uLOj03NGjFcWljxIR0RERESrWPDgWQz/tI7+z9GSOaam6ZaLP9qov58Gruq3NM9LF1b/bLLeOUwfKrv0YfePkLxCQT07ROPLEc4+a2lS8aWLVv8sTQuoZx46/2ujqQepNyHcf/Zx9jn9+ycH3q/HaKfzbYHswbrpvkw5CF6s/pVpuYfODgdo3/mbKYiIiIi+X3OD3Pijjfp/h5A/27kXFJmmIyIiIiL6VuYGuUREREREj9XiOblERERERI8Qg1wiIiIi2joMcomIiIho6zDIJSIiIqKtwyCXiIiIiLYOg1wiIiIi2jorBrkx3FcW3Mvi+iLTdLRZHuq4PVS5REREtG1WCnLDizrOngW5XxQrY5qOqorhX9iwXiU/A2ydugiLSYAK6fLmH7cYoZaffVGeW/xRK3NStl9MNmNRuWb1MNs/0/xWrQcRERFtgNvbWxERyf5dauwIXjoSFNcXmaYrFYnzEoLicuKId11MW8G1J+rEK659ZAJxTpQ442iyJvrgCN4UWzoQ58SR4HqaTsZl6QrmHrdIvBMI3gSS5Ri8gagPWv6T9ar6cZpbrml9TffPNL8V60FEREQboeJIbgi3fwbnsIdmcVOOabp5auj95UH95EFeyGSJfgWO/rbh3xTTm4kv+8DPB8XVj0r8sQv8OkDvaW2yrvZ0D+rLVUm6HppPpunwwx6UnmjG/OMWf2zhCB7k9yayHJv/84DrqJAyxNtPDRw8KaxeaFG5pvU12z/T/FarBxEREW2KSkFueLE/53Zynmm6ha7HGP64m1tVe9pD8GyI/mWsrY0RfnRhT24p27NzOi9dWK8s1N8PMXxfz91+tj/qecEsv8pCuKfzyqum9stgpl3nBe+jG62smxj+P300nhbDyKn5xy3Gu/8A7492cQNQDA5vrjDCCC2t/ZZ9KJlfrml9zffPLL/V6kFERESbwzzIvXSx/8lB9Pv8IAmokG6J+GYE9UO9uBr1H/Jjkf5pHd3rPZz/lY74/nWI0b+FeZNPe5AXEbyfFLwsXboMftFGOk3zq+oGGH0GAIVDbQRxHeKPLl4/OZ+pR+2Xcxz+pwX0/7wGfj2fCfAmFh23m3fo4xDt4qhmyQcRXI8x/KmBTtZ+hw0c/eNjbmi/qNwSpfWtsn8FpflhhXoQERHRZjGak3vtiXppMD/RNJ0B76Q8n+ANxBkX12rmzTtN5+MWZ2guNS+/BxeJ98aRoKSNRESCD54E2rxTGXvizMxPTS07bmOnZG6rwbEQSebAls61NSg3Z0F9V9q/BfmVWlAPIiIi2jgGI7kx/H+OgN/OZ0fKckzTmQgx/tzA7kw+Md5+cvA8HY2ML324p4Un4PtncMpuyaejeovGUSvl95BuQrgX73Dwew/NmTZKRiffPmmjqY8aP90F/ntXMhK5/LjFNyM09Lm9yVq8/aSw90NhdZmf9jA7Jr+83Ill9a26f0vym6u0HkRERLSJlga52QM958XbuQWm6YxcvsXZT3szDyElXzH1HE0kX+9U/3eM53+ca9MPIng/TYPg3Gsvz0qnP2Sq5vdQ4ksX7mUdvd/bcwP2d/+NZoO7myuMgJnXmB633Pze9HVnzzq5AHU2gE6O5ejng5XLNakvDPcPhvlVqQcRERFtpsVB7o2P1vvkgZ6Fb+6m6QzFNyMo/UGgm+R7Tfe/eLm5m4727QHxTQj/ooUjzAbHAHD1RWmjfTHiSx/2af5hoir5mQvhr+Whsxj+hYt3P/TQ0wJD/3Q2390fgfH1dF18E8L9p4/Gr4UHswyPW+3pIfD+NcK0rcKPNurvGwj0ebQ3PlqvbPj6Q4E3IdzLvdlA1qhc8/oa7Z9pflXqQURERBvLur29lZ2dHXz9+hU7Ozvaphj+aR39n6PZh3JyTNOZCS8s7H8qrlVwfuug90shaDmt4+hz+udPCgrA8PMQ+MmD/JkP6OJLF63+GYbp3+qZh87/2trt6mr5GbsJYf+9jyEUvMMB2iuOCpe3CwAoeH8NCiOWcRKgf0pr+5OD4I/irflqxy3+6KL1Pmk/9czD+f/aqBVv9d+EcP/Zx1nahupZgHPtK70SZuVWq+/y/auUn1E9iIiIaJPNDXLjjzbq/x0uDe5M09Fmeajj9lDlEhER0fdlbpBLRERERPRYLZ6TS0RERET0CDHIJSIiIqKtwyCXiIiIiLYOg1wiIiIi2joMcomIiIho6zDIJSIiIqKts2KQG8N9ZcG9LK4vMk1Hi8Tar7IRERER0XIrBbnhRR1nzwL0lvx6l2m6TRNfurBfWbBOXfg3yQ8YWBdhMdm9iz/asF5ZqP/jFzdthax+1isL1unjreOm9BciIiKaqh7kXrrY/+Qg+F3/id0SpukWiC9d2KdpEPTKgn3hwz+14d/nyOaNj1Yf6PwlCH4c4ehvC/X/Gneqx6pqvwwghw7UzwfFTWuSjLRPAs1JwJkEa/et9ssA8kIQ/abusY73bIP6CxEREU1V/MWzEO6rfeBQlozOmqabL/5oo/XfITp/tNF8kq67dNH6dw+D7+gnYcMLC2+frt6OS934sP9Brk3jSxf1/gjeXwO007a/T/deRyIiIvruVBrJDS/2jaYfmKZb5N1/DXT+nAa4AFB72psJcIujvdYrG+7HOJcmM5P21IU7MzIcI/yY3n7O8iudUxwjvLDz6eaUa+QmhHuq3753Ed4AV18U9n6YJpupw13LvR5j+ONublXtaQ/BsyH6l9N8q5Q7k7a0nTPxTB3zzI7HdOqDDV9vy1MX+YkDZvnBuB5m/WAmrznpgBj+hdYP0sUuTUtERERz3d7eiohI9u9cY0fw0pGouL7INN0S0QdH1Ikj3jiS6Lq4NTVO0gTF7WNHnA/6HkTivVHifAi0vCIJ3kDw0pFAS+mdQNQbb5ru2hN14mkpROQ6EOdEJfs2WReJd6JE5co1lNbDG09fG40dUSdKlN6WxvU1F30o3+fceuNyzdt5oqx9NUbHI3PtiXoJwUslTtqWxfqZ5WdYD9N+YNx+It6JEueDlp9E4p1AnHEuGRERES1hFuRee6JeKvGKb9JFpumquI4kGgfivVFJcDLZEIhzYhY4RR9UeZBQGuAUjB3Bm3wpnmG5RtLXzIaZyX5PyzavbxXeSfnxCt5kgZV5uSu1c0n7LrQofbqtrC3nKsnPtB5m/cC8/UQPcq8r1YKIiIgKDObkxvBP6+j/HGHwS624UWOabnX+qQ38kc4TvXRh9c+KSaZ+8iB/ttP9eo3dP3tY9ihQfOnj9b99nH0e5tY7+tziGx/2h10Myh4sunRhXT6HlG2bI/5o4/WTQenUjvijjRbOk/Y0rm8VIdxXb/H8RbFtYrivXifrjcs1b2fdwvqbHA/NorxgnJ9hPUz7gXH7TcWXIaKbt3h7PcLoC9D4dX6diIiIaI5lI7nRByWYM9KoM023VMnoViIQR79VPHZKb7PPCsQpzS+53ZzdQk7235EgN4IWzY7WXXuiSkcSk9vUZaOiixRvp2tb8repjetbwdgRlLRN8AbT0U3jcs3auWhemxkfD828vKRSfob1MO0Hxu03T9Lv75IDERHR92jxg2c3PlrvAe+PNhaOzZqmM3E9xvDzEVz9oaebEO7pPka/HU9H154+R+P6HYqP4yRp9YeDmthDH76WH27Sh4/+eTtdB8D5tYfmk6QG8U0I/6KFI+zlR/SeHKDxpVuyfy30fz6v/G0EtScNDN+/RjjZ33TfTlvof3bwPBvBM66vufhmlP/qrpvkoaf9Lx6ibITSuFzzdp4KMf7cwO6cNjM6HhMhxjjEwZy8YJyfYT1M+4Fx+4VwXxWPY4zwoovRs+d3P6+IiIi+MwumK5hOPzBNZyb+aOM1OsB/+zj7nK78yYH36zHaTwv538TwP7TQ/zREcgNawfmtg+NfmoWgIE4Cmk/ZbWoF5/AcvVx+ST2OJmUqKADDz8PZW8o3Idx/DPbPUHzpotU/S+sAqGcBzv93hdbfRxhCTb/Ky7i+y4UXFvY/Fdcm+fV+KYSRxuUatPOi2/e5djY8HnPzcxDkpmEY5pelXVYPVOgHJu136cL+d5TsT+YnBefnkuNBRERES80NcuOPNur/Hc7MFywyTbcRLl3Yl8/L51ESFbG/EBERPVpzg9xtE9/EqD2p5R9eI5qD/YWIiOhxWzwnd4tEly1Yryz0f+wwYKGl2F+IiIget+9mJJeIiIiIvh/fzUguEREREX0/GOQSERER0dZhkEtEREREW4dBLhERERFtHQa5RERERLR1GOQSERER0dZhkEtEREREW4dBLhERERFtndIgN/YBy5oubgggBmxtneVmiQHfzW+zXSAu5Ikwn18cTl9Tmp6IiIiIaEULf/HMtYDnAjS1db4NjDtAT1sZx0CtNv07dIH9ESCD6briNgDwOkC7mQS8aAJaFkREREREKysdyc0ce0DX11bEQB/5ABfIB7gA0DwGVH5VjjpMAuB2mk+NAS4RERERrdHCILfWBhpHQJj+Hb4GGp1Cohhw7fz0BqsFDAvJdI3d4hoiIiIiovVZGOQCwHMnHc2Nge4IOC6M4rp1AB0gEkCy5XzxSC4RERER0X1aGuQ2jwEcAf5rAIfl0wr26tP1cQy4S0ZyiYiIiIju09IgFzWg4wBHZ8B5u7gROA6Afn06VaHVAp53ADVM/p5MdXCTv/fPgLN9bWqDXciQiIiIiOiOFn67AhERERHRY7R8JJeIiIiI6JFhkEtEREREW4dBLhERERFtndIgN/edt99wISIiIiJah9Igd/J9t994ISIiIiJah9Igl4iIiIjoMWOQS0RERERbh0Eu4aNt4dSPi6s3xqbvHxEREW0eBrlEREREtHX4i2e0PrGP0xbw56Dk95+JiIiIviGO5BIRERHR1tmoIDd0LViWBduPEfsubCv527JsuCVzMkPXTrenr7NdhLPJgNiHa0/TWbYL17bghutLN7N7cQjftXN1sN0QxWRAeX6l5QJAmLXLnLoaC3FhWXiVLqVzXkM33e7iMg5xYWfpbVzk9i3GR9vCq/oRPg+PJnm+siy8sn09IQDg0rVzaU5tF5czxRvsH/R9tHARAjehi9PsNa6PGz1t7Gt1sPDKdvFxTrZERET0yN3e3oqISPbvQ4s8JUopUU4gkbY+8JQob7om8tI0WqIo8EQpR4LpKhGJxIESJ9ATRuIoiJNLaJgucEQpL7dvIpEEjprJT983EZHAgUB5+ZWm5WYCRxQggCP6S+7i2lNyorVtXiBvoOQllHxIC7wOPDmBknHxJZEnJzP1y7v2lJw4gVxrr70OPDlRjoz1hJrF+5cYO5CXSslL5Wj7Gch1liBw5ER5079FRCSSsaPkTVk7ExER0aO2USO5mWGjg0GviZq2rtk+R+PoNZIBxBCvjxro9JqoaYlqzTYGHWA/NwQaAQD2tDWo1dAbCHpNfaVZOr87wuF5O7dvQA3N40OMuvqoZS23bwDQPPag8quMy51o9jAQgUgPzUL+92eIZ8EAv6QFPmm28bNCfpTUSIgPRw382mviibbvT5pt/NkB+qVD1+Z+OuzgxaCn7WcTT9JtH7sj/HzenvydqOHp8SG+5I4bERERbYONDHLVXr24CkANe2qEqxhAfIURzrCvTVWYLPtnwOhKe10TvaCB/n5dmw5QNv3BJF2I8bCB3bLgsraLxnCcBuHJdAXXzk+nsFp9DPOvMiz3oTl4WhZwVxVf4QvO0NenM2TLzHGr7sfdeTsZ4nrYyAXWE7Vd/Dgc47K4noiIiB61jQxyh+NkdDMvngaYtQM04CAQgZQtxaf7J6OfApEI0XkH6Ndn57wuTdecBtpF8RVGag9JmBXDrXeBzjkifb/OD0tGck3K3RK1A/wIB4cieFG2FI/b2jTxgxrhZs5x+6L28LS4noiIiB61jQxy1ag785BW6Lcw8o7TILKGXgB0bR9xLnCJEfo2LC06jH0blqunq6GGen56QIV07U4D/Vah3DiG3+qj0cmCtHQKQr02mdYQxyHc1tHMSK5puRNre/DsngzH04fIsofVJsejht8D4F/bLwScMS59W0u3fr90GvivVSg3jvGx1cePk+NGRERE22Ijg1wcnuP8+Vu0Jrf6bbzFOQZt7X5zs4fzDvC6pU9XaOEtOpDCZFaFQrp6C+PDaGbOq1G6Zg+D80K61mvgfKCla+I4aKBfn6Zptd7ieceDGh4lAaqWpVG5a3bjT7/h4O+jIT4f1adTB7JgM3TxytrHJ5yhb9npNxEk33rwfjjE+3rhWw9qbfzhAf/W03zqXeAwwAu9Is0e/ugAH1r6dIUWLtHJpTPaPwCXbrKufwZ82te/OaEwz7bZw5/nhXLT4/b7PbYzERERPYyN+zGI2LfRKga0REREREQVbOZILhERERHRHWxUkBu6FupHQwyP0m8auMc5mkRERES0vTZuugIRERER0V0xyP0OvbKs4ioC8EKkuIqIiIgeKQa5RERERLR1NmpOLhERERHROjDIJSIiIqKtwyCXiIiIiLbOdxnk+nbyy2K2/mtdtGGSX1bLfp0s98tqREREREs87iA39mEXf77VQHsgiDxVXA3EIdw0ALYsC5btIoxDuIWf4aVvoYnfRfBCBH+VHSsiIiKiBR53kLtOoQ/7NXB8HkFEkuX8GFetfZwV0xIRERHRRtvIIDcOXdiTEVUbrh8j9m3tV9DiZMpB/QjD4dF05NWyYJWM7Ma+C3uSJsmvkAJ+t4/D4yZqtdp0da2G9iCAk0sawnftXH62G6KYI0J3sk9umNYp/dt2/ST9JE06YqzXuWToOHTTNsjysV2EMwWnJuUtSGMidCdTBi5C4CZ0cZpNIXB93GhJL117kvaVZeHUdnFZLDsO8dG1J3m8smycumEuHyIiIqK72rggN/ZttK6eYzBIR1PlHM/xGq0+oLwI0msCqKE9EEjkQSlvOvIqAhm0Z/MbP8f5JM05nqOF1tFQS/QOfRziQItvp5roSQ/N7M9aHQfHAwwm+Q3QwT7qxeC62YOIIHCAs66Nehc4DJJR4vPnu1qaAA5G2K93sddJtkfBIUb7di44jX0bXXQQRdO6nnf20G3d81SKZg8vRHDoAJ+6Nv7uAj8HEV6I4I+sHgBufBv/ooO/omSKwQsR/NHZw78tF5d6frU6nh4P8Gea5oUM8Cv28Xex/YiIiIjuYMOC3BivjxrotCchJYAamu0eOg0tKDUWJvn1mpjGrzU02wN0csOz2RYTNeiDvQDQPPawaNaoOuxABj20m8kLa019fwBgCCcYaNvbOFTA1WS7Vg99oLnZxqAD7JcN+zZ7aSDeQ5rtnf102MGLQQ+/pBk+aTbxBAAQ4sNRA7/2mniilfWk2cafHaCf279aLg0APD328FN+FREREdGdbFaQG7/DSO1NR0019b1FYeQc8ZV5fsOx2YhoHMK189MGrFYfi0Lwxm7ZHugcPF+UJL7CCGfY18vMlv0zYDQNh+/Tj/PqEV/hC87Q16YqTJbi/sUhLuz8tIZXrT4+6/kRERER3dFmBbm1AzTmBJvReFEYOUdt1yy/WhuH6gxvyxLmxHDrXaBzjkifInF+uHAk985qB2jAQaCXuWCKxjdXO8CPcHA4mYJQWCb7F+Mibb+/9O3nhxzJJSIiorXarCAXNRx7I3R9PdqMEfouuqM5YeRwPJ27mj28Nbk93kzyyz0YFiP0bXQLX5nQHgRA14afe0orKdu2s3mvEQBgr16bTDeI4xBu62jhSO7d1dALgK7tI849yJXUZVpfzboePDNSw+8B8K/t46awf5e+jVeT/Uva74d6LZ3mANzEIS5aRxzJJSIiovW6vb0VEZHs300QBY4oBQEggBLHiyTylCgvKiaVyHNEQU8bFJOUpEnyAyBwtPRRJJ6Trk8X5XiilxoFel4QpRwJAi9d50iWW+BM0+QW5U0zCxxtm5KkeoE4ev5anaPAE2fSLslryuorkuQ92afZZjM2diAvUbLo9UhdB568UXo6JW8K+3cdOHKi5XOiHBkHXrrOkXGWzlOzZWaLfsyIiIiISli3t7eys7ODr1+/YmdnpxgDb4zYt9HCOQbtNT1FRURERERba8OmKxARERER3d3GB7mhm3yLQP1oiOFRvXz+KRERERGR5tFMVyAiIiIiMsUgl+Z6ZVnFVRvlhUhxFRERERHAIJeIiIiIttHGz8klIiIiIqqKQS4RERERbR0GuRvEty3Y/r3/PBkRERHR1vsug1zfTr6W7L4Cyuxrz+4r/8x91+NxCHFhWXiVLqffdVsQERFR5nEHubEP2/aLa5dqDwSRp6YrYh+2lQSM+cWGG1YPmpq9Qv6G2gOp9ItuM/X4LjXxuwheiOCv774tiIiIKPO4g9x1qbUxkAAOHAQikHSJgkOM9lvg4CARERHR47KRQW4curDTW/GWZcP1Y8S+nfzthgDi5FZ9/QjD4VF+9LVkZDf2XW2kNsnPRK3ZRscZYhzl14duui/pYtsu5g34xuGyskO4el4z26eM6hGH8F07l852Q5SkTEz2b34djITuZMrARQjchC5OsykEro8bLemla0/SvrIsnNouLotlxyE+uvYkj1eWjVM3zOVDRERENM/GBbmxb6N19RyDQTaieo7neI1WH1BeBOk1AdTQHggk8qCUNxl5FRHIoD2b3/g5zidpzvEcLbSOhrl0ZeLQR/dMYa+urfNtdNFBFE3LPO/sodtyMfODw/0WWt09nGdpo3Ps9VuFQLaJXjZyvOB2u3E9anUcHA8wmKQboIN91EuC/7Vq9vBCBIcO8Klr4+8u8HMQ4YUI/ni+O0l249v4Fx38FSVTDF6I4I/OHv5tubjU86vV8fR4gD/TNC9kgF+xj7/vux5ERES0HW5vb0VEJPv3YUXiwJGguFpEAgeivCi/MvJEKS+/LieokF8gDiAoLMrTXz0/PwkcgTPdEnlKULpv8+sYeWq2jiILy52tR4ml7bQ+YwdykmszXSBv4Mi4uFqS9nuptV+pyJOTBfW49pScLGsLIiIi+i5s1khu/A4jtYdmcT2A+t78Uc654quK+eXn5IpE6KALy/aT2/3xFUY4w74+PSJb9s+A0VUuN3V4kPs7UcOeGuGqeHt+kSr1iEO4dn46hdXqY/m49fr8uFu2p0k9vuAMfW2qwmQptl8c4sLOT2t41erjs54fERER0RybFeTWDtAYjmdv+wOIxiuEabXdO+ZXQ7M9gIc+3sXp/s0EwtpSmCox7L/L/Z0IMR42sGv+JQoV6hHDrXeBzjkifb/OD1EW0n9ztQP8CAeHkykIhWXSfjEu0nr8pW8/P8RPhSyJiIiIymxWkIsajr0Rur4ezsUIfRfd0ZwwbTiePjAVh3Dt7OE0AGgm+eUevIoR+ja6Z5MVC8Whi6NJUFpDLwC6to84NxKb5DktN6HQh62njWP4dhcj77h0VHY+03okT8jt1WvIYug4DuG2juaP5K7rwTMjNfweAP/aPm4K7Xfp23g1ab+kHj/Ua3iSrrmJQ1y0jjiSS0RERGY2a05uIgocUSqbF6vE8aK581UjzxE1mUOrxCmZDzqbJskPQDKPNvK07YVFOVIsNgo8cSb7N1tu4GTzeaPSsnN5ZftRthTmqJbllatH1nZaHko5EgRZ/Urm9U7SOxLMNq+xsQN5iZKlZA7tdeDJG6WnU/KmcNyuA0dOtHxOlCPjwEvXTef1XntqtsxsWTbHl4iIiLaWdXt7Kzs7O/j69St2dnaKMfDGiH0bLZxX+rEEIiIiIvo+bdh0BSIiIiKiu9v4IDd0k28IqB8NMTyqz8x7JSIiIiIqejTTFYiIiIiITDHIpTt7ZVnFVRvlhUhxFREREW05BrlEREREtHU2fk4uEREREVFVDHKJiIiIaOswyKWt8dG2cOrf+8+2rWzT94+IiGibfJdBrm8nX0tm31PAkX3t2X3lT0RERESLPe4gN/Zh235x7VLtgSDyVHE1EIdw0wDYsixYtgvftSsHq83enPzpXv0yEPy5jl/Ei32crtCvllnb/hEREdFSjzvIXasQbquLvXOBSLJEHaB/NiwmJCIiIqINt5FBbhy6sCcjqjZcP0bs28nfbgggTqYc1I8wHB5NR14tC1bJCFzsu7AnaZL8ZoRvcYZD6ANttWYP52UjsrE/O+JbkiWyuiwqO3Qn+bhhPr3t+tBTh27aBtl220WYJcjySUefk9eHWn423Elig/x0JfV17WR/p2nCZNRbq6vthrn9z5ns15wyjYW4sCy8SpfSOa+hm253cRmHuLCz9DYucj+gF+OjbeFV/Qifh0eTPF9ZFl6V9KtL186lObVdXM4Ub7B/0PfRwkUI3IQuTrPXuD5u9LSxr9XBwivbxcc52RIREX23bm9vRUQk+/ehRZ4S5QX6Ggk8R5RSorxIWy8ikSdKefl1BZGnRDmBTF8ZSeApUUAhv0AcQBwv0tKWCBxRyiukiSRwlDjabkeeSvZZeRJliaNIvLJ6iEjgQKCUQDniBcn2KJju96Qe2kujwBOlHJkUG3lpvQIRicRTEChHgijZb8Cpll+yVhwocdJ9SlZF4ijk6isS5fKSSZ3mHJ/AEQUIkO7fGlx7Sk5K2jYRyBsoeQklH9ICrwNPTqBkXHxJ5MnJvP1OXXtKTpxArrXXXgeenChHxnpCzeL9S4wdyEul5KVytP0M5DpLEDhyorzp3yIiEsnYUfImf+CIiIi+axsW5EbioBhkJQKnGJSmQd3CYCSomF8gnpMEwEASIGYBZ8ZTSoovE5ndl8hTcwK88jom+1Ncm5lfDwkcQRZtFvYhV8fIEzXJwzC/ZIU4UDPtYGTp8VmvxUFkIG+AmUDwg1LyofiSpUFuIG8wJ5gNHHmZj/4nFu9fYuxATub2gzn7Kyb7TERE9H3ZrOkK8TuM1B6axfUA6nsl0waWia+q5Vdrot0bYJDNyT1/jnG3rj14FmI8bGC37Nmh2i4awzH0u9/q8ED7K1PDnhrhquT2cmO3bE/TeuAM+9rUgsmyfwaMroqvWKxSfk30ggb6+3VtukLJtIs4hGvnpz9YrT42a0azg6dzmriS+ApfcIa+Pp0hW2bar7of5/UDhLgeNvBkTv/7cTjGZXE9ERHRd2qzgtzawUygmInGK4RLJYFnpphf6BbmmAKo1ZrodRwMx1G6pjk3QC0LqIf9d9pfmQWB8jy1AzTgIEiD75ll0C6+YrGq+TV7k8BfJEJ03gH6da29Yrj1LtA5R6Tnc36Iko8Sj1/tAD/CwaEIXpQtxfZbmyZ+UCPczOl/X9QenhbXExERfac2K8hFDcfeCF0/90QTQt9FdzQnXBqOpw8uZV8BNom+mkl+uQegYoS+je7ZZMXE2b4NP/cUVIzw7Rmc59PQtd1poN/yEeeSxfBbfTQ6+eBGoQ/b1tLGMXy7i5F3XDq6PF8NvQDo6nkBk7pM62vKPL/Yt2G5eroaaqhjb5ICAJIPAXv1GrLYPY5DuK2j+SO5a3vw7J4Mx9OHyLKH1SbtUsPvAfCv7RcCzhiXvq2lW79fOg381yqUG8f42Orjx0L/IyIi+q5t1pzcRBQ4olQ6LxYqeRjMK39gK/KyB5iytLPzGWfTJPkBmMw/DRyI4wXiTMpN05bNRY28fDrl5ObpBk6yXnlRadm6LO3MUjK/MgoK5er1DZzcei/S8naCyUNp2bal+WVlekqUU5YuX49o8iBZsijlSBBkZZbM/13Tg2fXnpKXQPmSzY0NHG19Nqc1maObrS/Olb32HDnRXvOmpF9dB568UXqZs+mM9i974Ky4HZCXJf1AokK5yimfp0tERPQds25vb2VnZwdfv37Fzs5OMQbeGLFvo4VzDPhl+kRERES0xIZNVyAiIiIiuruND3JDN3lSv340xPCovsL8UyIiIiL63jya6QpERERERKYY5NKj9cqyiqsIwAuR4ioiIqLvDoNcIiIiIto6Gz8nl4iIiIioKga5RERERLR1jIJc3wZsv7h2dZueHxERERE9bkZBLhERERHRY8IHz4iIiIho63Akl4iIiIi2zsIg17UAK11K57yG0+1hDLj29O+yHyZbml+mkJdlAa4P2HY+2cr52YAfFxMRERER0bZYGOT2BBABIq+4JdVMtjsA9uvAXidNHwCj/STw1S3NL+VqeWXLcwDDQjqj/ELAbgHHAy2/AbD7ujwQJyIiIqLHb2GQW4UTAO1m8v9aEzhUwFUxkYHQBUbeNK9Ms50Ep1X5XeDwHKgV1jePgVG3sJKIiIiItsLagtznhaD0Lhq7xTWrGw+B3WKECwA1oDEEOJhLREREtH3WFuSu02iVIeA59hRwVTb/NgZGClhjbE5EREREG2LjgtzmMYAjwNeHWGMg9AE7fcCtinYH6LeAWH9dDPgtoNHR1hERERHR1pgb5Mb+9NsI6kfA8Ej7dgI3TZR+u8IZgH1r+o0FrgUcDYGj+vRbD4zyQzKNYBAB4662vQ50x8B5BDTTqQfG+TWBwTnwuqVtbwE4B3ocxiUiIiLaSvwxCCIiIiLaOnNHcomIiIiIHisGuURERES0dRjkEhEREdHWKQ1yJw9ofScLEREREW2X0iBX/znd72EhIiIiou1SGuQSERERET1mDHKJiIiIaOswyKWHY2u/IEJEeTw/iIjuhEHuYxa6sF39949TdvpEnR8DoZs+Yaf/DBzRBtL7LVW37vZbd37fiuH1L3Qt2I+tbkRUCYPcRyuGuz/C4XHJbxM30n93a0B9L/m/Sv/NTC7+JUtJ3HwvBgK0099pJhoI4Kni2u9X1fNj3e237vy+FZPrH4DmsQccvf5mlzsi+vYY5D5Ssd/CmTosfw/cUwAUUAdQ203WNdJ/M83e9OslPAV40fTvkriZiOhRMLn+AUCtjY5zhi5Hc4m21kYGuaF7Cst6NVls+wJh2XUo/gjXnqaz7Au49ivM3MGPL+Haep6ncP0L2PbHaZrwYrLdDYE4vICdle9+hF78sv2L/fx2N0z2NcvPsl7Bci/TxJfw3VNt2yls9zJX3qwY7/pDqMOD4gZNA6gBQB1QAPbqxQTL6bf64nB6G9Cyy0d7Y19LYwG2m/ydSxvmR43nvcHoI81h4W/Xn6aLQ8C1tTxtzHaAisrqMWc3FzJtPz/df1urV7bOspOys7xsd1pfN9TKsDFzkuTaZU49TNsZa2yXjK/fTbDn9wWTelQRh4Bd6DO+m29/GNS36vHNljDNW1836bOG5wcM26/K+WGSHwzaZVG6metBKteWxY2rMLv+NZ87GB69Xk+RRLR5bm9vRUQk+/ehRd6JKGcsUaStCz6IUm8k0BPKtTg4ESe4nq6KrsVRL8XJJRyLgxPx9HRyLYF3IlAftHWJwHkpUCcC9WbymigYS7Y71favuE7Em9m/61xeMtmH2X2biDxRUOIVXrcyT8n8zAIRqGQJ0jSBl/yde0mUTyMiEkUiCjLTCJmF5aYciCglohytfD3DqLAf2Wu8wkpDgVPy2kjEUfPrsZBh+0VeSbmS1H3a+ZKxdi9I9kkhaZco3W8409d5SsQJ8mUEXpK+zLJ2Xne7ZPs3ESXrgHyfqFqPpdLjoffTrGy9fsb1NTy+EuWPT2bV88O0/UzPD9P8jNul4vUgcNL7SGl//lbWfS0loo2yYUHuuDQwFBGR4I3AGWsryoLXWYHzUpS3OI0uSa+Xo6uyf2lArJcdfRC1KHjNLEsXOAI45fuxikVvphIkbz7FwvTgS2RO8LDEwnJTThbUVTAvYDQxU6/Uynkatt+8/ItBrp7G0QKQyNOCqKA8oJI0mMh/ykosa+fi/maK+2Rkwf7pdVqUbl49lsnlv4BxfQ2Pr5T095m8CorpJxa0i0n9ZsqtkF9ZvWRenhWvBw8iEAdYqSsR0ebbrOkK8Q1G+IR9/bZ+tux/AkY3WuKn6AU/or//9zSNfQrX19MkGrtPiqsWauw+La5KVNo/oNb+FY2jD5O7c+Hr92h0fsmlmZ1K8QpW6z8M86kemGMwT7cJBA1gv67dnlxwy7OK3QWFz9x6toBWv5jKUAgMs9ucBbVdYDgurjVk0n5rFF8BOMu3SbbsnwGjq+IrEnPbec3tEl+VPggEZPMpU6vWY5ndsoroqtbX8Pi2O8DR6+nfr4+ATltPYca0/WB4fhjnV6Vd7vF6QERkaLOC3NpTNPAMgbyAlC2DQoDY/B2Dyfa/EJ3/CvT/nplyNrqaDXxXUnX/8BTPnU/o+jdA/BHd0W/IfxnCDdz6v0DnD0R6Puc/Y+EzzfU9KIxwtWnvF/rDbBIB5x2gXy+fg7cWMVDvAp1zrVwBzg+LCQ01ATUqnxO4KBDYNLWDJPDS20RfBlUDqzW3y0xApBlrH+/WXo/U0hNnzfWdaALOWRLoxT4w8syC4yLT9jM9P4zzq9gu3/x6sIL4CiOoeVN2ieiR26wgF0/QC4Cu/RFx7kJ6g9A/nT6shfThLldP9wQ1/IDi20/z+Dfg6B/4oRboxjcI/QvY1unMszqLme9fJin/A/zX74HDp4VBkGsAwF79yWR9HF/Cbb1fPJJbO8ChGqL/rtLO3y/fTh5UmuxSLXno415FyT91rVXjEGgdTf+uqtMAWno9AMRxMvq1yqhbFcP+tNzsQaaFHWGeGhAgeZAq10Xi9DitEGWstV2agDcq7Ee6b2faqvuox7EHHLXyD+nFcfrQVfqQH9ZdX036tVV4fQQsfHB0EdP2Mz0/TPOr0C5Vrwdrf/DMUDTGEA0clI1OE9Hjt1lzchNR8EEc9VKAbDkRpzBPNnkArCxdyfzbaCyOOsmlU86H3ANfgaPnoy0lc2NN9k+X5P2mfCpb8EaUVp5SbyQIPqTr5sz/FZHIU4JF8/mWmTzoUbJkhebSZHPx0jmI2ZLN1/OUiOMlD5borynOD8weZilb9IlxTsl2lDwwU6yHctIHfzB/nuEyUaEe2cNdVVVpPxERT0ufPQCW7YfS2y3NK2sjJ5g+lKY/8BSUHY9CjzJtZ1lju2T0+mZ9Jesfel8wqUcVUTDbno43W5dl9a16fDMO5vdN0/NDDNuvyvlhkp8YtItUuB5kHujBs8CBqHn7RESPnnV7eys7Ozv4+vUrdnZ2ijEwbawQrtXFXjQo/65cIiKaL/Zh18foSG+lWSNEtPk2bLoCmWuiFzRw9HqFW7ZERN+58PUR4B0zwCXaYhzJJSIiIqKtw5FcIiIiIto6DHKJiIiIaOswyCUiIiKircMgl4iIiIi2DoNcIiIiIto631WQ69uvYPtr+olfIiIiItpYGxjkXsK1XsFKl0cRlIYu7FV+YvQ7FboWbP9b/nYnERERfW82+ntyY/8ULfyBQftJcdMGieFaLf7yWBX8pSEiIiK6Zxs4kvu4xH4LZ+qQAW4VtTY6zhm6HM0lIiKie/Kog9zQPZ1Ma7CsV7DtC4QzcZPh9If4Er57CnuS9hS2e4mZ7HJivOsPoQ4PcmtD14JlJbfkY9+FbSV/W5YNtySwC1073Z6+znZL6pGMgLr2NJ1lu3BtCzMzJe6Qbmb34hC+a+fqYLthebuU5FdaLoDmcwfDo9fl+RARERHd0aMNcmP/FF38iih6AZFkOe/8gG7rAvmY6il66fbI+ym3Jaf2Aw6O/8QgTSvyJzroo25/LKacit+hP1Q4PMgP4zZ7gshTQL+F1vg5zkUgIhAZ4DlaufmosW+jiw6iKEsjOO/sodtyC/WI4db7QCeapJPz41yKSulCF3YLOB5My5XBMXZf2/mgtFbHwfEAA60OHeyjbvtaIpiXm6nvQWGEd4xyiYiI6B480iD3Eq+PfkSn9xQ1Lb6sNX/BoAPsu5d6YkNPcnkBQPP4N6j8qrxojCEa2J0zVWHY6GDQa0Lf3Gyfo3H0Og1gQ7w+aqDTaxbq0U7roUebEQBgT1uDWg29gaCXm9hqls7vjnB43s7tG1BD8/gQo64ewNZK2sUraRezcqfbdtHAEOPkZURERERr9TiD3PgGI3zCvjYNYbLsfwJGc6YkLBJfwrXz0x+s1n8YFtNVoPbqxVUAathTI1zFAOIrjHCGfW2qwmTZPwNGV9rrmugFDfT369p0gLLpDybpQoyHc4Lz2i4aw/F0FDkO4dr56RRWq1/SLiblEhEREX0bjzPIrT1FA88QTKYWFJbBL8VXLHEDt/4v0PkDkZ7P+c8lI5aa9Jb71Zw4blg6TBlPA8zaARpwEEymAhSWQTv/0mZPmzYQITrvAP367JzXpema00C7KL7CSO2l33oQw613gc45In2/zg/L22VpuZr4CiMolH4OICIiIrqjxxnk4gl6AdC1PyLOBWo3CP1TWJWnK1wDAPbqTya37+P4Em7rfcmIpaZ2gEM1RH/OxFI16s48pBX6LYy84zSIrKX18Av1iBH6NiwtOox9G5arp6uhhnp+ekCFdO1OA/1Wodw4ht/qo9HJgut0CkK9prVLCLd1NNMupuVOpFM9CtOZiYiIiNZi44Lc2J9OGagffcbw6O/p9AE9eG3+jvMO8LqlT1f4B2/xK6T3tGJ+T3Ec/Ih+fZpXq3WJ553foIbvYVnFh9kyNRwcKgz774obEofnOH/+Fq3JrX4bb3GOgf59Y81eWg99ukILb9GBFCazKhTS1VsYH0Yzc16N0jV7GJwX0rVeA+cDLV0Tx0ED/fo0Tav1Fs87HtTwCJaVfzjOqNxU+PYMyjsuzAkmIiIiWo+N/jGIxyGEa3Vnfgwi9m20igEtJfhjEERERHTPNm4k9/FJHrg6el0+1kuzwtdHwGTKBhEREdH6cST3HoSuhf0zbYUTzEw9ICIiIqL7wyCXiIiIiLYOpysQERER0dZhkEtEREREW4dBLhERERFtHQa5RERERLR1GOQSERER0dZhkEtEREREW4dBLhERERFtHQa5RERERLR1GOQSERER0dZhkEtEREREW4dBLhERERFtHQa5RERERLR1GOQSERER0dZhkEtEREREW4dBLhERERFtHQa5RERERLR1GOQSERER0dZhkEtEREREW4dBLhERERFtHQa5RERERLR1GOQSERER0dZhkEtEREREW4dBLhERERFtHQa5RERERLR1GOQuErqw3bC4ljaNawFWYZl33HwXsLM0fnErACB0Ldh+XFxNREREjwiD3LliuPsjHB43ixto3eIYvmvDssuDTiOBAKItvZLj5tvAbg8YpGmOURoMN4894Og1ZrdsiPgjbPtjcS0RERFpGOTOEfstnKlDtGvFLbROse/Crrcw3utABu3i5jUKgf4hoMe+tTYw6gLFQdtaGx3nDF2O5hIRET1amxnkxh/h2q9gWeliX8C1X80MuoXu6TSN9Qq2fYFwLXFJjHf9IdThQW5t6FqwrORWduy7sK3kb8uy4ZYERKFrp9vT19lu+f7FPlx7ms6yXbi2NVPfu6Sb2b04hO/auTrYbjgT7wHl+ZWWW0UcwrUt1Pt7OI8G6LVLRl7XKb4CGrvFtUBjCETFlUDzuYPh0evy9qhoaT8NL9JtFwjjS63vnxba+Aa+/QpW/T2Gw/e5PK3iyG58Cd89hT1JcwrbvSyvT8n5NtNfiIiIHpvb21sREcn+fXjX4uBEnOB6uiq6Fke9FCfQVnknopyxRJG2LvggSr0RLdlqIk8UlHha3tNNSpRSopxA9M2Bp0RpL4i8NE1u/zxRyinsXyQOlDiBnjASRyFXX+N0gSNKebl9E4kkcNRMfvq+iYgEDgTKy680LbeCwFGCYp534eQmKohAiRTzDhyRmbqlry0/0HP7QBXm/XQsDk4EOBEv7ftR8EEUTmaqItEHUepDYWXRdcnxfSkovi54I0p9KPSXawmck5WPLxER0SbYwCA3ebPP3ujLjcVBMUhIBW8Ezri4tprAEaAYjCYiTwlK3/0jcSavCbT/FwRO4fWBOFDizUQyRWbpPDUnMIs8UWVBnq40jVm5ZiLxFAQzgf66RSJKSf5TSMUgVwJxsHogn6jST8fiIP9BTkTEUyezu2cU5JYoeV1p/lKeloiI6DHZwOkKT9ELfkR//2/t9ukpXP9mmiS+wQifsK/frs2W/U/ASEt7D9RevbgKQA17aoSrOLk1PsIZ9rWpCpNl/wwYXWmva6IXNNDfr2vTAcqmP5ikCzEeNrBbNo+4tovGcDx9mCoO4dr56RRWq49h/lWG5ZqqoT0QBI0R9i0bbuncjXWoAYcA3mn51/f0BHmlDbYGlfvpMzxf16yN+BKunZ8mYbX+KxzfS4yHP5ZXv/YEjeH15j58R0REtMQGBrkAmr9jIC8g8gIifyE6/xXo/z2dn1h7igaeIZikKSyDXwoZVlTfg0IasJYYjksmcSKeBpi1AzTgIBCBlC3FB6yaPQwm2yNE5x2gX5+d87o0XXMaaBfFVxipvfS5qxhuvQt0zhHp+3V+CFV8HUzKrabZG0CiDtCtw5o3T3ndarvAcFxYGQMjBZR9ZomvMIJC6ecZU/fdT+e6gVv/F+j8gUgv7/znwvF9ij31ZU5/ucFI/ZB7To+IiOgx2bggN/ZPYbkfEU/eeJ+ghh+QH4d7gl4AdG09HQDcIPRPYbmX+srqagc4VEP09ZFAjRp1Zx7SCv0WRt5xGhTU0v3zC/sXI/RtWFp0GPs2LFdPV0MN9UJ9zdO1Ow30W4Vy4xh+q49GJwuukyB9r15DNogXxyHc1tHMSK5puZXVmugNBNEh0K3bcP0VI2bfBmwXuQqHLnAE4EAfomwC3gi5J6r810Cjg0kj6KIxhmjks6jsHvvp8Hr64SB7WG2S3zUAYK/+RDu+l3Bb72eOb7vzI/qtwv7FN/Bb/6HRua8gnIiI6BvYtDm5yYM6H8RRLwXIlhNxvNk5ulFQlu6O83FTkadKHsJKHyjzIokCRxQgAJKHqEomNkaBJ47K0mTp8pMukwfUytLl8zNNlybOp1POzLzL/P4jeSAu8NJ10zmzlcpdVRSJ58yb62wg8ESU9uCZcvLzcXWOmqZzZo9vJnCQe5DwLpb20+BNbltSbDJHN1uvCv0/8t6ImpefiESBvv1l8qBb8CFdV5gnHBX2T72Z6S9ERESPjXV7eys7Ozv4+vUrdnZ2ijHwdyyEa3WxFw1y35Ub+zZaOMeAX6C7vWIfdn2MjvR4u56IiOiR2rjpCpsjeeDq6PWKt9Hp0QpfHwGTqSdERET0GHEkt4LQtbB/pq1wAkjZz8cSERER0YNikEtEREREW4fTFYiIiIho6zDIJSIiIqKtwyCXiIiIiLYOg1wiIiIi2joMconuyrbyv6RG3yf2g3Lb0i7rrse68yOiGQxyqbrQha39NPGEbQFWeuEO3eT/lltMRXo7rcO68zP1UOVui3W337rz+1742bUqXWwXud9sp8VcC7D94topw/eF0LVgs+/SmjHIpYpiuPsjHB6XfD9wI/13twbU95L/q/TfnBhwbe1NxQbCDbq4xf7ii3bRQJD7WbxlBgJ4qrh2devOz9RDlbupvtd+sEzVdvmWYh84AhBNfuwbGPSAst1ddz3Wnd8yVa9r62L4vtA89oCj1ygZPiFaGYNcqiT2WzhTh+XX5j0FQAF1ALXdZF0j/XciBKw6sNeZvqmcd4BuHSgbHSYiuk9qrzyoJXMz13mN0fsCgFobHecMXY7m0hoxyNWE7iks69Vkse2L8gHG+CNce5rOsi/g2q9mY7T4Eq6t53kK17+AbX+cpgkvJtvdEIjDC9hZ+e7H3F2zZfsX+/ntbpjsa5afZb2C5V6miS/hu6fatlPY7uWSu3Qx3vWHUIcHxQ2aRvqGUQcUgL16frPbBbwIaGsjwbUmMIiA0T4QAvDTUV591CFbZ9n5W4lxmB8VtuzZYFm/RRaH09tnlp2UNxEn2+pHwPCocAuzOAIS5rcvujDnbofa5WlN6pExyQ8o5LeG27APVW4cJqP9ubLd2WMS+9qxLSnXtB9M+lq6hGne+rrJsXkE/WBZuyxKZ6f1r8ygXUyPR2bZ/lW6bqTHs+xcz5VtUI+MUT+tkN+y88i4/apc1wzKXcmS94VU87mD4dHruxdHlLm9vRURkezf71XknYhyxhJF2rrggyj1RgI9oVyLgxNxguvpquhaHPVSnFzCsTg4EU9PJ9cSeCcC9UFblwiclwJ1IlBvJq+JgrFku1Nt/4rrRLyZ/bvO5SWTfZjdt4nIEwUlXuF15gIROMWVU56SSeaRJ6K8YgoRpWTSKCIiEhX+FhEHJa8NRKCSJUhfEHjJ38XXzyt7Hn2/izwl+YaPknVA4TWG9TDNL0un5xl4ImpB+y/yUOVmxy07ZiLTsvW2CZzZtpJIxFGSPxlM+0FU3lcVCvlpNrEfGLdLNNvOUbS4vqYWtUul42Gwf/PO3ZnrRmpe+jIm9VjWT3WL8jM+j0zbz7CuxuVqZvriHdz5PYYoj0GuSBqQzgaGIiISvBE4Y21FWfA6K3BeivIWp9El6fVydFX2Lw2I9bKjD6IWBa+ZZekCRwCnfD9MLLvI6hf9eWnnvVnpSl8bJAFAcefL8it9/QJz36wWBPVOMbgpMbMfpvktSBc4K7whLcjvXsst5r9A2XGUeW1o2A+Kx3Umr4Ji+okF7WJSv5lyK+RXVi+Zl2cxSFuTue0iFY6H4f7N1Cs1k19qXvoyi+pRbHcTc/NbcHxnziPT9jOpa5VyNesMciUQB1hfdvTd43QFAIhvMMIn7Ou39bNl/xMwutESP0Uv+BH9/b+naexTuL6eJtHYfVJctVBj92lxVaLS/gG19q9oHH2Y3LEKX79Ho/NLLs3sVIpXsFr/YZhPtV61XWA4Lq69m5lbhBbQ6hdTpRyg5Hm5exNflT5gAWTz1DQm9TDNL74CcJbPK1v2z4DRlf7K5R6q3MzusgmTITDMbocWlPY5w37Q7gBHr6d/vz4COm09hRnT9sOa+0GldmkCQQPYr0/LtRdMgVgrk+PxkPtnaGk/NVT5PDJpPwOVy9XMmX5A9NAY5AJA7SkaeIZAXkDKlkEhQGz+jsFk+1+Izn8F+n/PTJ0bXc0Gviupun94iufOJ3T9GyD+iO7oN+S/DOEGbv1foPMHIj2f85+x8Nns+h4URrha+X2lCThn5fPtECZPOR9UeaOIgXoX6JxPH2ITAc4PiwkfxkwgoRnrHycM62GaX+0geePT89KXQcVA7aHKzSztcE1AjcrnDS4KCJdK+6sfJ3M4R95qwYRp+627H1Rtl2ZPKzdKHgjt1+ecrw9g0/dvaT81dF/n0TKrltserO9bIuIrjKAYM9PaMMgFADxBLwC69kfEuevUDUL/dPqwFtKHu1w93RPU8AOKb6PN49+Ao3/gh1qgG98g9C9gW6flD7TNZb5/maT8D/BfvwcOnxYGc64BAHv1J5P1cXwJt/V+8Uhu7QCHaoj+u0o7n3fsAfuFEZjQB+x9wDvPjzoN+9M36OzBitwORsk/de1FcQi0jqZ/r2o4ni27+ClmqSbgjQqvi5OHYc60Vcb1MM2vBgRIHirJHao07b3VY93lpv3lqJX/irk4Th+60h4m6jSAVqHcOE5GQVcZfc2kX2uE10fAwgcuFzFtv3X3gwrt4tuAq6erJQ8JbYoq+7f0unEPTPupkXs4jzILr2urlBuno72z33u7kmiMIRrVxjqIFuGc3Kko+CCOeilAtpyIU5gnmzwAVpauZP5tNBZHneTSKedD7oGvwNHz0ZaSubEm+6dL8n4zMzVLRCQK3ojSylPqjQTBh3TdnPm/IhJ5SrBwXpeByEseGJmMEcyZa+c50zTKSdJkr8vmsgVamkk6L/07nV+WS5PNVUvnsmVLcW6cXjaUiFdokewhn7KlOKFsJi/tIaEsrUk9quQnkj4wou9bST2qeKhyoyCZY6jn53hz5hwW2lBPs0o/kHS+ZfEYZB5DP1jWLpLNqyw7bsWEhkzapcrxqLJ/q1w39EU/bCb1yJj00yr5LTuPqrRfZqbPlJyXy8rNidI0c86PigIHoor7THQH1u3trezs7ODr16/Y2dkpxsBEBSFcq4u9aLD6Hao4BFr7JaMrCggGq90SJiKixyv2YdfH6EiPbwG0NgxyqbrQhfX2OaTHSxEREd1d6Fro7kUYrDx6QjSLQS4RERERbR0+eEZEREREW4dBLhERERFtHQa5RERERLR1GOQSERER0dZhkEtEREREW4dBLhERERFtHQa5RERERLR1GOQSERER0dZhkEtEREREW2czg9z4I1z7FSwrXewLuPYruGE+WeieTtNYr2DbFwhjPcFFuu0CYXyp5Xk6kxfiS/juKexJfqew3Uvo2U2U7J9fmpCIiIiIHsIGBrk3cOv/AZ2/IPIiWc7/V0yE2D9FF78iitI08gLnnR/QbV1gEr82f4fIIRx8wX79X+yleUbBzxjtn+YD4toPODj+E4OsTPkTHfRRtz9qiZLA2W4Bx4NpuTL4H3ZflwTORERERPQgNjDIvQYA7Omrak/QG7xAr5mtuMTrox/R6T1FraYla/6CQQfYdy+nKwEAn+EEf6LdfDJJd6iAq1yaJ7m8AKB5/BtUfhX87hccnv+CfNInaB7/jFG3EBATERER0YPYwCD3KXrBj+jv/61NBziF699Mk8Q3GOET9rWpCpNl/xMw0tICAJ7h+SRAniO+hGvnpz9Yrf8wzCW6xHj4I3YLwTCQBOKN4fV0FJmIiIiIHswGBrnJNIPptIG/EJ3/CvT/nk4HqD1FA88QTNIUlsEvhQyXuYFb/xfo/IFIz+f858JI7lPsqS+4Kpt/G99gpH7AsliaiIiIiO7fxgW5sX8Ky/2IeBJIPkENP+SnL+AJegHQtfV0AHCD0D+FNTNdYZl0ikT9yWQaQhxfwm29L4zkAu3Oj+i3CuXGN/Bb/6HRqRpcExEREdF9sG5vb2VnZwdfv37Fzs5Ocfs3F/unaI1/RmP0HmeTCPMnON4f6LWTObWTtOFHvO4W0/2KXvtp8md4kUxfSLd50Z9o1y7hWn2cpWuV9xcG7SeIwwu09j9NglqlnqHT+QHd/fcY4hkC+X06Sht/hNvSylXP4J3/jnbZNAYiIiIi+uY2LsglIiIiIrqrjZuuQERERER0VwxyiYiIiGjrMMglIiIioq3DIJeIiIiItg6DXCIiIiLaOgxyiYiIiGjrMMglIiIioq3DIJeIiIiItg6DXCIiIiLaOgxyiYiIiGjrMMglIiIioq3DIJeIiIiItg6DXCIiIiLaOgxyiYiIiGjrMMglIiIioq3DIJeIiIiItg6DXCIiIiLaOgxyiYiIiGjrMMglIiIioq3DIJeIiIiItg6DXCIiIiLaOgxyiYiIiGjrMMglIiIioq3DIJeIiIiItg6DXCIiIiLaOgxyiYiIiGjrMMglIiIioq3DIJeIiIiItg6DXCIiIiLaOgxyiYiIiGjrMMglIiIioq3DIJeIiIiItg6DXCIiIiLaOgxyiYiIiGjrMMglIiIioq3DIJeIiIiItg6DXCIiIiLaOgxyiYiIiGjrMMglIiIioq3DIJeIiIiItg6DXCIiIiLaOgxyiYiIiGjrMMglIiIioq3DIJeIiIiItg6DXCIiIiLaOgxyiYiIiGjrfJdBrm9bsCwLth8XN9G34ruAbQGWBbh+cWs1cQi4dpKXZQG2C6zh0Ma+zT5CRET0SD3uIDf2YdvVA6T2QBB5qrgaiEO4aQBsWRYs20UYh3AtF2Ex7TaKY/iuDWuFNq3Et4HdHjAQQAQ4BuCu2MKxD9S7wPPzJC8R4HAE1N1iSiIiIvqOPO4gd51CH/Zr4Pg8gogky/kxrlr7OCum3UKx78KutzDe60AG7eLmNQqB/iHQ1FbV2sCou9roa60NyABo1qbr2gNAjVbLL/Zh2y78MEQEAOMIYejDtW1wUJeIiOjx2MggNw5d2JMRVRuuHyP27eRvNwQQJ1MO6kcYDo+mI6+WVToKGfsu7EmaJL9CCvjdPg6Pm6jVtGCpVkN7EMDJJQ3hu3YuP9sNZ+Op0J3skxumdUr/tl0/ST9Jk44Y63UuGdgM3bQNsnxsF+FMwRWl5db7eziPBui19ejzHsRXQGO3uBZoDJFElWvg2wAOAe1QGqu1MRgc4wBX6B4NMRy9BXCA48EA7Yr5hW56nPzYoA9WOL6xP3PHwbWTfraudDO7Z9rvUZ5fablERET36fb2VkREsn8fWuQpUV6gr5HAc0QpJcqLtPUiEnmilJdfVxB5SpQTyPSVkQSeEgVM80vzKeQ+RyRRIWHgQDBnP5JtSqAc8YLkhVGg708gDpQAStvuiYKS9M9kXVYPfV3giVKO6K1VReAk5Tp6QfctcETK2sqBSPH4VhF52WSF8vwrijwlcDzxlNZPVhB5Kum7uT4oSR/U8jU/vpE4xWMWReIoiJNLaJgucEr6fiSBo2byM+v3huUSERHdsw0LciNxUHxTTwROSbCxNMgNzPJbms8SC16flFO2B5lAHMwGAJ5SWsw3vx4SOILii5eKxFMQzARQswIHAsxZKpd7j0HuRCTiqPIyTEVacBnNfuCoIgmWy9pJ7+tVjm/yoSj7QDSfWbp8P9Ms6NMTpWnMyiUiIrpvmzVdIX6HkdrLTdfM1PdKHhRbJr4yz284Nnu4LA7h2vnbylarj2ExnaaxW7YHOgfPFyWJrzDCGfb1MrNl/wwYXRVfsUQN7YEgaIywb9lwS++JJ5q9dH5y2dJbtNNz1PeKa6Z2K84HKFUDegOgcQSzA1qi1sZg0Ev6Ta2NgQxyU36rUnv14ioANeypEa7iqse3iV7QQH+/rk0HKJv+YJIuxHjYKG/22i4a+jlh3O9NyiUiIrp/mxXk1g7yb6yaaDz7drpU8Y1ak8uv1sahOsPbsoQ5Mdx6F+icI9KDvfNDrBCCm6sdoAEHQTHIzJYVHxRr9gaQqAN06+k3SRRT3IPaLjAcF1bGwEgBZbHgXVx9iwotNxyXTTaOpwFm1ePb7GEw2R4hOu8A/frsnNel6ZrTQLso9wGxYr9fWi4REdH926wgFzUceyN0ff3dMEbou+iOSt9OkxHY7E06e3hr8m7aTPLLPSATI/RtdAtfmdAeBEDXhp+L9JKybTv7CrEkWNmr1ybPNMVxCLd1VDKitU419AKga/uIcwFJUpdpfVdQa6I3EESHQLduw821/X1oAt4IuSeb/NdAo1P+oFjopt9/a5d/W4JvJ9+zO9kWJ+vOHFR+UuyeqFF35iGt0G9h5B2nQaT58Y19G5arp6uhhjqK4+Om6dqdBvqtQrlxDL/VR6OTBdfm/d60XCIionu3WXNyE1HgiFLZ3E8ljhelD6TNzvOLPEfUZJ6oEqdk/utsmiS/mXmlUSSek65PF+XkH8qJAj0vJHM3Ay9dN51XOXcuqz6HMXC0bdncyGSO7iR//eGkwBNn0i7Ja8rqu7Ks/qVzSNfMUdMHxZzivE5N4KTplMx9MjDwRNTkW3JFlDM/7TeW9dt8v0n6YJHJ8U0eUCtLl8/PNF2aOJ9OOTPzdE37faVyiYiI7pF1e3srOzs7+Pr1K3Z2doox8MaIfRstnGOwIaNzRCbYb4mIiB7Ghk1XICIiIiK6u40PcrMv1K8fDTE8qt9t/inRNxS6Wr+19LniREREdN8ezXQFIiIiIiJTGz+SS0RERERUFYNcIiIiIto6DHKJiIiIaOswyCUiIiKircMgl4iIiIi2zncZ5Pp28rVktv7TsrQ1eHy/kdCF/QBfi8bjmxf79vrawncB20p+Stv1i1urM8ovnKZZkC50ecyJqJrHHeTGPmy7/IK4SHsgiDxVXA3EIdz0DdSyLFi2izAO4Vouvv1b+QOIY/iuDWuFNr0XPL5rsdYgaCKGuz/C4XGzuMEcj+9m8W1gtwcM0h/IPgZwlw8xRvnFgN0Fzic/yg08H5ekA5rHHnD0mseSiIw97iB3nUIf9mvg+DyCiCTL+TGuWvs4K6bdQrHvwq63MN7rQAbt4ubH7zs/vusW+y2cqUNszK8Vf2/HN/Zh2y78MEQEAOMIYejDtW2s9nkmBPqHgP6ZpdYGRl3gPvOL3wE4BPR+1HwOnL3VVqRqbXScM3RXqyARfYc2MsiNQxf2ZETGhuvHiH1b+9WoOLllWT/CcHg0HbmxrNJRyNh3YU/SJPkVUsDv9nF43EStpl1tazW0BwGcXNIQvmvn8rPdcPZ9IHQn++SGaZ3Sv23XT9JP0qQjTnqdS4YrQjdtgywf20U4U3BFabn1/h7OowF67TuMzBni8f2Gx/dexHjXH0IdHhQ3ADy+3+b41toYDI5xgCt0j4YYjt4COMDxYLDaB4/4CmjsFtcCjSGSKLoi0/xqu8CwXwh8rwC1p62Yaj53MDx6PXu8iIjK3N7eiohI9u9Dizwlygv0NRJ4jiilRHmRtl5EIk+U8vLrCiJPiXICmb4yksBTooBpfmk+hdzniCQqJAwcCObsR7JNCZQjXpC8MAr0/QnEgRJAads9UVCS/pmsy+qhrws8UcoRvbWqCJykXEcv6J7x+H6745tJ2tys9kaiZP/LsuTx/bbHN/KUwPHEU1p7rCJwRMrawIGUHuhlquQXeSJKiSiIKCdZ5hW5oO8RERVtWJAbiYPyi37glFzEl75JBmb5Lc1niQWvT8op24NMIA4gTiGJp/QL+fx6SOAIii9eKhJPQWDwBhs4EGDOskK58+rB41tej9WOb1LmzPHKFuOAcI7AEZTuL49v5n6PbyrSguQ0+Fv582qVoNRElfwcJ/935M2mmShvbyKiMps1XSF+h5Hay03jytT3Sh40WSa+Ms9vODZ7oCEO4dr5245Wq49hMZ2msVu2BzoHzxclia8wwhn29TKzZf8MGF0VX7FEDe2BIGiMsG/ZcBfcM2320vmNZUtv0U6X4PEtt/bj20RPO06Rp6A8ba7qoJ2bArk2PL7l1n58U7U2BoNe0j61NgYyQHPVA1svnx4AANhdIVPT/GIfGBXS1naBo9f5dUREK9isILd2gMacN6tovOhtaI7arll+tTYO1RneliXMieHWu0DnHJEe7J0fYoW3cHO1AzTgICgGmVrQsopmbwCJOkC3nj6JXkyxZjy+5e7p+N6b+h4URrgq9hce33KP4fjWdoHhuLAyBkYKqBdWm6iS38zc3SbmHpD4CiMo7BXzICIqsVlBLmo49kbo+vq7VYzQd9EdzbnqDcfT4Cx7+GPy1EczyS/3YEmM0LfRLTxy3R4EQNeGn4v0krJtO/sKouSJib16bTISFsch3NbRwpGgu6uhFwBd20ecCyySukzru4JaE72BIDoEunUbbq7t143Ht9w9Ht/7UDvAoRqi/24myuXxLfUYjm8T8EbIfTWD/xpodPLffJAJ3fR7bW2UPwVmmF/tYPYbF0IXwJyR4GiMIRo4KNsnIqKizZqTm4gCR5TK5hAqcbxo7sMzkeeImsw3VOKUzJ+bTZPkNzOvNIrEc9L16aKc/PzFKNDzQjInLvDSddN5d3Pnsurz1AJH25bN4cvPp9TrHAWeOJN2SV5TVt+VZfW/5wlvPL5a/t/g+M5r27uIPDX3YS0eXy3/b3B818pR2bfVijjlx1cknXMLiEDNf0hMDPOLguShs2Xp0uNS1o+IiMpYt7e3srOzg69fv2JnZ6cYA2+M2LfRwjkGK30/Dm06Ht/HJoRrdbEXmX1lFY8v3Vnsw66P0ZF0HjIR0RIbNl2BiB6HJnpBA0evN+FWO30PwtdHgHfMAJeIjG38SG7oWtjX5985QfWn+mlj8fhuNx5fIiJ6KBsf5BIRERERVcXpCkRERES0dRjkEhEREdHWYZBLRERERFuHQS4RERERbR0GuURERES0dRjkEhEREdHWYZBLRERERFuHQS4RERERbR0GuURERES0dRjkEhEREdHWYZBLRERERFuHQS4RERERbR0GuURERES0dRjkEhEREdHWYZBLRERERFuHQS4RERERbR0GuURERES0dRjkEhEREdHWYZBLRERERFuHQS4RERERbR0GuURERES0dRjkEhEREdHWYZBLRERERFuHQe4G8W0Lth8XVxMRERFRRd9lkOvbFizr/gLK0L3f/DP3XY+NEPqAbQHrqKNrAVZhccNiqspi397uY0BERPQIPe4gN/Zh235x7VLtgSDy1HRF7MO2koAxv9hww+rBS7NXyN9QeyAYtGvF1XPN1ONbiWP4rg1rhbY3FvuAbQNXu0DHKW5dXSCAaEuvWUxBREREW+BxB7nrUmtjIAEcOAhEIOkSBYcY7bfWMoi4LWLfhV1vYbzXgQzaxc3rU2sDgwHQ3tAgNPZh2y78MEQEAOMIYejDtW32FyIiog2wkUFuHLqw01vxlmXD9WPEvp387YYA4uRWff0Iw+FRfvS1ZHQx9l1tpDbJz0St2UbHGWIc5deHbrov6WLbLuYN+MbhsrJDuHpeM9unjOoRh/BdO5fOdkOUpKwmDuHaFur9PZxHA/Q2Nfj8VmptDAbHOMAVukdDDEdvARzgeDBAhcF4oDC9xeQYG/e/2Ic7OY8sWLYL17ZmZ2jcId3M7lXpfyX5lZZLRES0go0LcmPfRuvqOQaDbET1HM/xGq0+oLwI0msCqKE9EEjkQSlvMvIqIjOji7FvozV+jvNJmnM8Rwuto2EuXZk49NE9U9ira+t8G110EEXTMs87e+i2XMy8N/dbaHX3cJ6ljc6x128VAtkmetnI8YKpB8b1qNVxcDzAYJJugA72US8J/k2Frg2r3gU6EWTQRq1iELcWxU8aq9rX5+TaKI8OTdWAqz6GjgcPZ+heAas0zWR6S79VOMYDPEe+v5j3vxhuvZ8csyy/8+NcikrpQhd2CzienJcCGRxj97WdD0qN+59huURERKu6vb0VEZHs34cViQNHguJqEQkciPKi/MrIE6W8/LqcoEJ+gTiAoLAoT3/1/PwkcATOdEvkKUHpvs2vY+Sp2TqKLCx3th4llrbTPJF4CgJVXrYucGbbbrJo7bKSwBG5ax6lIhGlRJY031yRJyprm8gTBSXBinlFnprTTnp/md8Piv0vSavEW7pDZuk8paS0m5n0rdI0ZuUSERGtarNGcuN3GKk9lN0Ir+/NH+WcK76qmF9+Tq5IhA66sGw/ud0aX2GEM+xrt4ony/4ZMLrK5aYOD3J/J2rYUyNcVRlArFKPOIRr529nW60+lo9bl0lGzIPGCPtLHsJr9vR2Kywb+3BXDTgE8G5+vRaqtTEY9JLjUmtjIAM0VxnKTSn9lsGE1l8q9b8mekED/f26Nh2gbPqDSboQ42EDu2V1q+2iMRxPR5GN+59JuURERKvbrCC3dpB/w9RE49m3yaWKb8Aas/xqaLYH8NBP4qDaARozgbC2FKZKDPvvcn8nFgQM8xjXI4Zb7wKdc0T6fp0foiykN9XsDSBRB+jWYc2b/0l3NiydkhFP+0vF/odmT5s2ECE67wD9+uyc16XpmvM/mOU+gFXsf0vLJSIiWt1mBbmo4dgboevr73IxQt9Fd1T6NgkMx9OgK304Knk4DQCaSX65B19ihL6N7tlkxUJx6OJoEpTW0AuAru0jzr3hJ3lOy00o9GHraeMYvt3FyDsuHZWdz7QeSZC0V69N5obGcQi3dVQyklZRrYneQBAdAt26DTd3jDZA6E7n2ZYFY74N2C5yBy50gSMAB1U+cdwfNerOPKQV+i2tv5j3v9i3Ybl6uhpqqGNvkiJhmq7daaDfKpQbx/BbfTQ6WXBt3v9MyyUiIlrZZs3JTUSBI0plczqVOF40d75q5DmiJvM/lTi5ObTz0iT5TeaLRp62vbAoZ2YuYhR44kz2b7bcbH6q8qLSsnN5ZftRthTmaJbllatH1nZaHko5EgRZ/ebM56wqisRz5s0hXZPI07/NNr+UFRs46fYFc2wDT0Rp+ShnftpvLOvf+eM321/EoP9Jlp9Tlm62/5mkSxPn05WeG2b9r1K5REREK7Bub29lZ2cHX79+xc7OTjEG3hixb6OF80o/lkD0WLB/ExERrdeGTVcgIiIiIrq7jQ9ysy/Krx8NMTyqz8x7JXrsQlfr35Y+p5yIiIhW9WimKxARERERmdr4kVwiIiIioqoY5BIRERHR1mGQS0RERERbh0EuEREREW0dBrkbxLct2H7Zz3XR94T9gMB+QER0Z99lkOvbydeS3dcbSPa1Z/eVf+a+67Ht7rv92A8qCl3YD/D1affdftvaD2LfXl9ZvgvYVvLT3K5f3Fpd6Cf5Ldq/OE2T/Rz4nLSh++3alIjW63EHubEP265+QWwPBJGnpitiH7aVvEHkFxtuWP3i1uwV8jfUHkilX7yaqce3EsfwXRvWCm1/L9gPVipnVWsNbiZiuPsjHB43ixvMsR+sVM6D821gtwcM0h/cPgaw6oed2AdsG7jaBTpOcasmBOp9oBMlZUbnQL9eGug2jz3g6DVW3CMiekCPO8hdl1obAwngwEEgAkmXKDjEaL9Vdt37bsW+C7vewnivAxm0i5sfN/aDBxP7LZypQ1SI6e4P+8F8sQ/bduGHISIAGEcIQx+uba/YLiHQPwT0zza1NjDqAqvkV2sDgwHQXvJhye8C3jnQTDtcrQace0D/XTElUGuj45yhu1oFiegBbWSQG4cu7PTWm2XZcP0YsW8nf7shgDi5NVc/wnB4lB9tKRnJiX1XG5lJ8jNRa7bRcYYYR/n1oZvuS7rYtot5AzxxuKzsEK6e18z2KaN6xCF8186ls91wpfeLnDiEa1uo9/dwHg3QW/YmsgbsB+WM6nFf/eBexHjXH0IdHhQ3AOwHhe1TRvVYdz+otTEYHOMAV+geDTEcvQVwgOPBYLUPKPEV0NgtrgUaQyRR9D1pDzCzw9G4fF8ANJ87GB69Xr3diOhBbFyQG/s2WlfPMRhkIyjneI7XaPUB5UWQXhNADe2BQCIPSnmTkRYRmRldjH0brfFznE/SnOM5WmgdDXPpysShj+6Zwl5dW+fb6KKDKJqWed7ZQ7flzt7O6rfQ6u7hPEsbnWOv3yq8cTXRy0aKFtxqNK5HrY6D4wEGk3QDdLCPesmbvanQtWHVu0AnggzaqK3yZlYR+0E543rcQz+4N/E79IcKhwezHYv9oJxxPe6lH9SAqz6GjgcPZ+heAbNHzlA0BkZXxbWJqzWElMVPJPPEIdAdAfOmy9T3oDDCuzXsEhF9Q7e3tyIikv37sCJx4EhQXC0igQNRXpRfGXmilJdflxNUyC8QBxAUFuXpr56fnwSOwJluiTwlKN23+XWMPDVbR5GF5c7Wo8TSdponEk9BoMrL1gXObNtNFq1dzMxvo9L6Lq1flfZjP5hV3iaTRXmypOTFAkdQWq/5bVRa36X1q9J+5XX+vvtBKvJEZdeEyBMFJcGSIucKHJGyfXEgsqweywSOiMm1JwpElJLFnTjpDybZEdHm2KyR3PgdRmovNz0rU9+bP6oxV3xVMb/8HDyRCB10Ydl+cpsqvsIIZ9jXb4dmy/7ZzIhE+e3XGvbUqNogRZV6xCFcO3/71Gr1sXycqkwyQhY0Rthf8tBNs6e3W2Hple35AuwH5arUY639YDq6mI0wKi+ats+gvfpI3iLsB+Wq1GOt/SBVa2Mw6CXl19oYyGAytbWy+l5xzdTuqplWEPtAqwucD+4wHE1Em2qzgtzaARrD8extPgDReIXLcm33jvnV0GwP4KGf3KaqHaAx88anLYVbo8OyhxgQYjxsVLt+G9cjhlvvAp1zRPp+nR+i7C3cVLM3gEQdoFuHtWC+4dqwH5Qzrsf99IN7k94Kngn02A/KGdfjEfSD2i4wHBdWxsBIAdq0kHsRukBrnDyotqz94yuMkJ+qQkSbb7OCXNRw7I3Q9fXLd4zQd9EdzbksD8fToCt9OCp5GAUAmkl+uQctYoS+je7ZZMVCcejiaPImVEMvALq2jzj3hpzkOS03odCHraeNY/h2FyPvuHQUZj7TeiTzz/bqtck1O45DuK2ju43cAECtid5AEB0C3boNN3eM1o39oJxpPe6xH9yH2gEO1RD9mQmP7AflTOvxGPpBE/BG+a/u8l8DjU554Bm60++1LXaXKlwbePscGPSm62IfmDdXORpjiAZKpo0T0SbbrDm5iShwRKlsHpwSx4vmzk+LPEfUZM6cEic3Z25emiQ/IJ0vGnna9uJ8Q2dmalgUeOJM9m+23Gx+qvKi0rJzeWX7UbYUJoCV5ZWrR9Z2Wh5KORIEWf3K5/FVFkXiOWpm/9aN/SBdNqwfzDsGdzF/zir7wWTZsH6wVo6S9FtyRZzyfiCSzrMFRDBnDm3kTfMpLnplVcl2oHx+sOlcZyLaONbt7a3s7Ozg69ev2NnZKcbAGyP2bbRwXunL0Wn7sB9sqxCu1cVeZPZVVOwH9M3EPuz6GB1J5yET0aOxYdMViOj71EQvaODo9X1OgyGqLnx9BFSeUkJEm2DjR3JD18K+Ps/MCao/rU+PHvsBgf2AiIgq2Pggl4iIiIioKk5XICIiIqKtwyCXiIiIiLYOg1wiIiIi2joMcomIiIho6zDIJSIiIqKtwyCXiIiIiLYOg1wiIiIi2joMcomIiIho6zDIJSIiIqKtwyCXiIiIiLYOg1wiIiIi2joMcomIiIho6zDIJSIiIqKtwyCXiIiIiLYOg1wiIiIi2joMcomIiIho6zDIJSIiIqKtwyCXiIiIiLYOg1wiIiIi2joMcomIiIho6zDIJSIiIqKtwyCXiIiIiLYOg1wiIiIi2joMcomIiIho63yXQa5vW7AsC7YfFzetRejeb/5EREREtNjjDnJjH7btF9cu1R4IIk8VVwNxCDcNgC3LgmW78F27crDa7M3Jn+4mjuG7NqwVjjkRERF9Xx53kLtWIdxWF3vnApFkiTpA/2xYTEgPIPZd2PUWxnsdyKBd3ExERESUs5FBbhy6sCcjqjZcP0bs28nfbgggTqYc1I8wHB5NR14tq3SUL/Zd2JM0SX4zwrc4wyHatemqWrOH87IR2difHfEtyRJZXRaVHbqTfNwwn952feipQzdtg2y77SLMEmT5pKPPyetDLT8b7iSxQX66kvq6drK/0zRhMuqt1dV2w9z+ryQdXa/393AeDdBrN4sp1kafZmLSZ9bafndMN7N7VY5HSX6l5RIRET0mt7e3IiKS/fvQIk+J8gJ9jQSeI0opUV6krReRyBOlvPy6gshTopxApq+MJPCUKKCQXyAOII4XaWlLBI4o5RXSRBI4ShxttyNPJfusPImyxFEkXlk9RCRwIFBKoBzxgmR7FEz3e1IP7aVR4IlSjkyKjby0XoGIROIpCJQjQZTsN+BUyy9ZKw6UOOk+JasicRRy9RWJcnnJpE6Lj88igaMExbLv2eS45fqMJH1GO2730X5G6Qz7n/nxMCyXiIjokdmwIDcSB8UgIRE4xaBUDILcoGJ+/9/e/eu2jaVhA394BWmyuzcgGYhXewOH2G+A6aQ0g8XCrTvyA7awG3cGZgKoc0MWg9ju3BqbYJuQ3QCbQLqB0SqAD2/gQ1JkruD9CpLS4SEpHTpyLDPPDyASkUfnHynyNXmOlEgU5AEwkAeIZcBZipQS+20i9broSDUEFNLaxrw+9tpSezskCQRlNGLVodJGHYla5eGYX75CAqhaPzjZun/aGAG6vcmSBMW+alruEaXpSLW8z9xvD9F/bulcj79GjWncyiUiInpq9mu4QvYOC3WIpgfSw8OGYQPbZHfd8huMcXI1w6wck3vzE5bToTHxLMVyPsKBMaRhZXCA0XwJ8wmvOnppvCoNcKgWuGt4bjw6aKpp0Q5cY2I8Gl8tk2tgcWe/Y7NO+Y1xlYxwOxkaj7MbHt9nKUK/+vjeO77F/UY0D3AyEySjBSYNwyxM46v1GOractXSn1uow6G9qrrfHqL/nNJ1OP6c94dLuURERE/PfgW5g5e1QLGkl/XL81b2hd9g55eG9TGIg8EYV+cB5ktdrBm3BqhNAfX89p3xqrQhUGkzeIkRAiR2EFcuXSdidc1vfLUK/EU09M05cDs0+itDOJwC5zfQZj43R2j4U8LZ+GoG0efAdAivbbzrA1jvb1O23m877z/XdK7HX8f9sbVcIiKip2e/glwMcBYtMI0rM5qQxiGmi8bLMzBfroOf8ivAVlfncZ5fZcJNhjT2Mb1erVi5nviIK5FUhvQ/1wh+WoeuJ+cj3B7HyCrJMsTHtxidV4MbhVv4vpE2yxD7Uyyis8a7y+0GuEqAqZkXsGrLur2u3PPLYh9eaKYbYIAhDlcpACAPCg+HA5Sxe5alCI9PG+4cdjQY42om0EfAdOgjrBwbD0MtprVJWml8bOy3Xfefezq34899f7iWS0RE9OTs15jcnE4CUaocW6nyyWDWxJ9V2ihYj6GFkqBhXGs9TZ6fOW4zCSBBlEiwKrdI2zRWUUfVdCqojJMsx4mqSDeWbWodU1obO5lPbKrVr2xvElTWR9rIO0hWk9LKbVvzK8uMlKigKV21HTox24l8AlZSltkyfrUrrSUK2sbM7kZ5nFXbU2+v7Lr/HNMViTcef9Jhf3Qql4iI6Anxvnz5Is+ePcMff/yBZ8+e2THw3shiH8e4wcz8ji+iHeNxRkRE1A97NlyBiIiIiOjr7X2QW35B//B0jvnp8B7jT4ncpKFxnHnm2G4iIiJ6ap7McAUiIiIiIld7fyeXiIiIiKgrBrlERERE1DsMcomIiIiodxjkEhEREVHvMMglIiIiot5hkEtEREREvcMgl4iIiIh6h0EuEREREfUOg1wiIiIi6h0GuURERETUOwxyiYiIiKh3GOQSERERUe8wyCUiIiKi3mGQS0RERES9wyCXiIiIiHqHQS4RERER9Q6DXCIiIiLqHQa5RERERNQ7DHKJiIiIqHcY5BIRERFR7zDIJSIiIqLeYZBLRERERL3DIJeIiIiIeodBLj2MNAT82F5L3xPfA+LMXktERPRNMMh9Mj4i9F7BKxY//mwnaJeG8MPUXpsHIV4RiKRh/n8vtFN1l4bABMDsxN7Sb2Z/Une77r9d5/etPNTnku4lDT34T+0YIiKAQe5T8gJX8jNEfoaO/mJv3CBDOFng6GxsbwBGxb8HA2B4mP9fFf8CQOwXF1gPKGPkLF6v8zzADp6zFJgC0FfV9d+DmQCRstd+v2YCnAzste123X+7zu9b2fa5pG9qfBYBpxerUyARPR0Mcnsui49xrY6aY41DBUABQwCDg3zdqPgXAE5mQBLk/58WQw8GJ4AIEACINHBlBc+DMTC7AprKI6Lttn0u6dsanOA8uMaUd3OJnpy9DHLT8HL1WN7zXsH33yJtOr9kHxD663Se/xah/6p2cxHZR4S+meclwvgtfP/DOk36drU9TIEsfQu/LD/8ALP4bfXL4ur2MM3rWubnea/ghR+LxB8Rh5fGtkv44cdKefeX4d3tHOropb3BMCoC0iGgABwO7QRAkAA4bX/sW97xNcfgru4C+0BWDGHwPMAPgbDYFqbG41gftZ1cpisXP8zzMq3eX9xtNl+H1pjgLF4/Cm7Lr4vYKMvz2/vHpR1dZCngm3n6eV3sMdDb2ms+Cs9SI62/vnMP646+V/Rz6x39tLq+rU/g2H9ZavWfX396UHLJDw79simdbzzVMFX60t54Hw6fyx1JQw+elz+Sz+IQvpe/9jwfYUMfpqFfbC/e54e1jy6Q91/or9N5fojQ9+q77yvS1aqXpYhDv9IGP0ybd0lDfo3lAhj/FGB+etGcDxHtry9fvoiISPnvY9PRa1HBUrQ21iXvRak3kpgJ5ZMEeC1B8mm9Sn+SQP0iQSXhUgK8lshMJ58kiV4L1HtjXS4JfhGo1wL1ZvUenSylrE63+tnrRKJa/T5V8pJVHep1K+notajIbE8LHYmCksjKv5MkEAkSER2JIFivDyCVjHUkoqL165JSYnSeCCASJSKiRRREVJBvT4Jq/pEqyl2vkiTK0zcJkJelApGkeFNidHQSNNRPiwRKajvJRVm/FZ2vg9UvXduxVSICtW6jyLpss33O7S3yM/NMovx15bjR1f1TUmjvv0hV+8Lk2n+irXqU+9pqm2t+zv2i6/2si2O2qb1JkJeF4nh+YnSkRCklKkisQ1WJMvpPR0Uas1uSSJQKrG7REkBJYPVfoGCd/xzTJYEoFVldqyUJVC2/+vkUgoZ97lTuatsOzqVE9M3tWZC7bAwMRUQkeSMIlsaKpuC1Lgl+cQsIC3l6sxxTl/o1BKP6vagNwevKlnS1fNskgQD2xaejMsiVIrgw/3+fINdMY+ZRCaKT5oBKrPqYgjJ4bmHWw2TXycmG+lX6ZUO6tnZsY/d7G+f2JnlwZlel6f120FrLy2KnX9nQLy7tq5XbIb+mdklbnvYfE/2lIyVoPB61BKtzSGL835IE1vsTCaAk2tp/buki1RJg6kjUpmNQ2tK4lbuWSICWAJiI9tZ+DVfIPmOB3zExH+uXy+R3YGF+o8ALXCV/xu3k13Ua/xJhw7cOjA6e26s2Gh28sFflOtUPGJz8gNHp+9XTzfTiN4zO/15JUx9K8Qre8f8wr6baD1cJcD1pfly7S9kdgOvqY+9ymVwDizv7HbmDhsl1QP4IfV4+/rUMDoD50l67WXbXPhHo0JjodN92bHPQ1BBT1/YGQFvXmU7OgdOL9euLU+D8Ht+g4dp/KIYrVIZmeMDxrZXGNb8u/TIGkhEwGRrDFTYMgegB1TgkYoBDtcBdlvfzAteYGEMVVkvteB7jKhnhdjI0hgM0DX9wSZdiOR81H/aDA4zmy/UpKUsR+tXhFN7xbcP51KVcInrq9ivIHbzACH9DUnyLQG2ZWQHi+B+Yrbb/C/rmB+D219qYqsVdPfC9l671wwv8FPyOafwZyD5guvgR1S85+Ixw+F/g/J/QZj43f8VO5oQPD6FQXKB2YpxPRCsnoT2Uwcs88CoeANeWzl9NNgbUonms5KYAqU0tIDIsjcvpzttR2LpDd9zelTEQXOeBXhYDi8gtOLa59h8yYDgFzm+q/XZzZKTpkl/HfhlfGeVq4OYcuB0+/B95HZTjaT37pHcP86W2VwHI1gHm4CVGCJCIQJoW+3geX2G22q6hi/6rVXVruvE60LZld1iow+IwzBAWx4s263Vz1Hw+3VquIbvDAuohh0YT0QPYryAXz3GVAFP/A7LKCe0z0vhyPVkLxeSu0Ez3HAP8Cfble3z2I3D6b8SpEehmn5HGb+F7l80TJlq516+Ul/8e8cVvwNEL6ybSJwDA4fD5an2WfUR4/FvDnYd7GLzEkZrj9l2nRm42PssnoV3bGwDMb9cBRDmR6V4NGQAJ8olUlapn+SSoxqvQFucj4NjKL8vyu4Kd70aOgWhh1aOoW6VfHqAdZxFwelydpJdlxaSrYpIfdt1eQ/F1Srg4BTZOaNzEtf+KoGtofGqyFDg+Xb8GOuTXoV9iP5+4uEo3yCeBtdn5xDMXGe4WAKAQNX1FYEdqMa1N0krjYyyisyKIHBTnv9g6/2VIY78SaGexDy800w0wwLB2fnZNd3I+wu2xVW6WIT6+xWi13/Lj5XA4MM6nKcLj09ppyLXcFb3EHCO8bLqbTET7a7/G5OZ08l4C9YsA5fJaAmucbD4BrCldw1hVvZRAva6kU8H7ygSFJDDzMZaGsbEu9TPleb9pHgqYvBFllKfUG0mS98W69fhfHZn1txZrLLBJR6ph0oWjcuJOuawrk7+2B8lF5eSbYkJZUkzUQTEpbJVXMS4yKF4H5cQ2Y5tIMUHLvIen6uNuyzzspanN2sqvnPR2X2Z7UYw/LfvMHLzn0o4udFLvzyCqt2Vbe1eTpYo8tKzH6JaLvY+l7POWMbD2MWMu9oBGl/6r1LE8rspjxaqDS37i0C9STmRr2m92wsJjTDzTkSigZSxtN7qYYKaTIM8TEEBJ0NBenUQSqDJNma5ah3yCWlO6an6u6YrE1XQqqO2Oav2RT4hLin4yxhN3KlfyyWvmBDwiehq8L1++yLNnz/DHH3/g2bNndgxMT16K0JviUM+avyuXiJ6kLPYxPAWiHXy2s9jHMW4w+9qM+iiL4Q+XOJere43OIaLHs2fDFWj38gkWpxf3eDRORHtLL+dAcP7VAS5tll6cAqshG0T0lPBOLhHRdywNPUzMsctBArF/yZCI6AlikEtEREREvcPhCkRERETUOwxyiYiIiKh3GOQSERERUe8wyCUiIiKi3mGQS98f38t/mpaIvk4a5r/otwv8XBLRjjHIfTI+IvRewSsWPzZ+pnibNITf9BOyvpf/FGmcVX+WlKrMftqFXefn6rHKpX5KQ2ACYPYVPxP9FPT0PBn7HjzPg/+9nw9c9m/s5+t39QcdHMstvuLvu99HX4FB7pPxAlfyM0R+ho7+Ym/cIEM4WeCo6bftR8W/BwNgWPxqu2r69fYMCIsPuecBvg+ke/Shy+JuJ5+ZoNM36M8EiJS99v52nZ+rxyqX+idLgSkAfWVvub+un8tvxfk8+UiyGH6X81/hZCbQTeeDLEVYBMCe58HzQ6RZitAL0XCr5Olz2b8nM0BH1XVfy6VcAOOzCDi96GfffwMMcnsui49xrY6arx2HCoAChgAGB/m6UfHvSgp4Q+DwHBDJl5tzYDoEmu4OE1H/DcbA7ApoOq/0jdN5sifSGP4FcHajISL5cnOGu+MJzN8L6ZXH2r+u5Q5OcB5cY8q7ufeyl0FuGl6uHst73iv4/tvmG4fZB4T+Op3nv0Xov6rHXtlHhL6Z5yXC+C18/8M6Tfp2tT1MgSx9C78sP/wAs/ht9cvi6vYwzeta5ud5r+CFH4vEHxGHl8a2S/jhx0p595fh3e0c6uilvcEwKi5UQ0ABOBxWN4dTINLAiXEneDAGZhpYTIC05VFOuc7zUWlMllbvCnt+PVg2H91k6fqxjufn5a1k+bbhKTA/NfJseqyUVrdvOmHEZflFmU1pXdpRcskPsPLzAD+s9l1Xj1VuluZ3+ytlW2M3XftvdSx4+b43X4dFfs7HS2FX7X2ocl36D13yi426Fen8oj+7ptvlfssTVtvQdoy6lluq7Bt7431sOU8+gCwN4a/uqPoI4wxZ7Oev84tKPuRgeIr5/HR959Xz4NnHCoAsDuGv0uT5WSkQT29xdDbGYGD89TIY4GSWIKgkTRGHfiU/P0zrXZ2Gqzrl19V1HfwwztOv0hR3jM02N+ziNCz6oMzHD5vjg0467t/V9a04Fs3yzfOuX5wbzM9ChVu5458CzE8v6v1L23358kVERMp/H5uOXosKlqK1sS55L0q9kcRMKJ8kwGsJkk/rVfqTBOoXCSoJlxLgtURmOvkkSfRaoN4b63JJ8ItAvRaoN6v36GQpZXW61c9eJxLV6vepkpes6lCvW0lHr0VFZnta6EgUlERW/u4SEQT2yrVIySpzHYmoyE4hopSsOk9ERLT1WkQCNLw3EYHKl6R4QxLlr+33t5Xdxqy3LVJS3UE6XwdY73Fsh2t+ZTozzyQSURv6f5PHKrfcb+U+E1mXXekbx/4rBciPJRUYx4PZPsfj5aHau7NyHfvPOT9dz09rEQWpnpw6pNvpfjNs+lx2LTcJiudOQf19T4COlKio+vlNokCUUqLsPtKRqLZ+KOhIiQoSoyu0JJESBazzK/Jx6y7dcN2CoKUe+TYlUIFExXGgE7M+iQRQAihje379qhySZTvMdUkkSgW1a+3OmdeZJMiPabuz7PNu+RmyzwddffW1/Pu1Z0HusjEwFBGR5I0gWBormoLXuiT4xS0gLOTpzXJMXerXEIzq96I2BK8rW9LV8m2TBAJ8xYd/W/BoXpTa0taC3AaN703yi5Rd+ab8Gt+/QevFdENQH9hBboNaPVzz25AuCaxg1cWG/B60XDv/jmr9ZwggUrno21yOlwdo767Ldeq/DvlJU9DcxDVdg6/ab4bWz2WLTeU+aVqClvN2EhhBaWlrkJu45bc1ny02vD8vp6kGpUQCoPYRjJQZ2LW3Q5JAYL9513TxR2Rg/8Feavlc6oY/ejtr7h/abr+GK2SfscDvmJiP9ctl8juwML9R4AWukj/jdvLrOo1/ibDhWwdGB8/tVRuNDl7Yq3Kd6gcMTn7A6PT96glFevEbRud/r6SpD6V4Be/4f5hXUz2OwQEwX9prv07tUawHHN/aqQoB0DBf7sFkd40D/4Fy/JTBpR2u+WV3AK6reZXL5BpY3Jnv3O6xyi0dOAzUdOk/28G2g2HL8fJQ7d11udv6r1N+YyAZAZPhOo3fNHTFMd2D7DcH9yn3qcreYaEOGw+poX0ecpHduec3X9afqDfJUoR+ddiAd3y78bo12nocBPhpU5LsDgtcY2KWWS614/6BzK+Bxbx57Gzbebccb0uPYr+C3MELjPA3JMW3CNSWmRUgjv+B2Wr7v6BvfgBuf62N41nc1QPfe+laP7zAT8HvmMafgewDposfUf2Sg88Ih/8Fzv8JbeZz81fc41RWNzyEwgJ39vXM2RgIrhvGESEfS3cK4OWWC3JFBgynwPnNehKbCHBzZCd8HJuC+qV5+nZsh2t+g5d5oGTmZS5dv6LpscotbT3gHPtv1x6qvdt0LXdb/3XNb3xlbNf5xNHbYf1zvTXdI+23Ryu3uzQsgi77ItTF4CVGLcGmrpyHHA0O3PIbnOBIXeM/TQkrMoTF/tDl5DQRyM3Rbq5bbQYvMUKAxCzTXOzjflf7w6Si/FtAMK3/Adh23s12EHxnd1hAtQ3ZpQ32K8jFc1wlwNT/gKxy/HxGGl+uJ2uhmNwVmumeY4A/wf47anz2I3D6b8SpEehmn5HGb+F7lx0HrLvXr5SX/x7xxW/A0QtrMvInAMDh8PlqfZZ9RHj828a/iJ0NXuJIzXH7rlMjq84iYGLd0UljwJ8A0U11dvX8dj0Av5yIU2mIzv8ZGm/KUuD4dP36vubLetmdT2xjIFpY78vySQaVqcWu7XDNbwAkyCcWVXZVkfbB2rHrcovj5fS4+hVzWVZMxignaLj23649QHuddCjXqf865Bf7+USvVbpBPsnF5pTusfbbPcrd+cQzFxnuFgCgEDV9ZaOzAc6iBaZx9fObxiGmi5Ywcr5cHzLl5K3VcTDO86tMDMuQxj6m1lcmnMwSYOojrlwY87J9v/wKsXx/HA4HxnUrRXh8upvrVqtBcf2Nretv3pZ6ILur/dHg6ga4PbYC3YbzbpZtPk5d6SXmGHW7p0S5/RqTm9PJewnULwKUy2sJrHGy+QSwpnQNY1X1UgL1upJOBe8rg9eTwMzHWBrGxrrUz5Tn/aZxSI5O3ogyylPqjSTJ+2Ldevyvjsz6W4s1FtikI9U6GcCZjorB8+XSMnYvKid7YD3RpHxfObBqNSHETBcVr4vxTJU05VimYuxjudjj0syyoerjAMtJV02LPdCplpcxaatM69KOLvmJFBOHzLo1tKOLxypXJ/mYVDO/IKqOSXPtv8Csl5neOKa7Hi+7au9DlevSf+KYX1S8t5bO/vw4ptvlfpMOn0vXcmvpGyYHPRQdiQJ2NjZUJ4EoBQEggJIg0sWEtHqDdBTkZa/S1utQT5PnB7vOWksUFOuLRQXVCWk6MfNCPvErKdpvjJtNgnWaymJ9ftfbyjG4+RjUVf5Gm3USSbDql/w9Te3d6f4oj9Oy3ro89orF3Cf2dVAX493ru81Z41hscuJ9+fJFnj17hj/++APPnj2zY2B68lKE3hSHetb8XbkushQ4nlh3ZZF/x18y2zwekYjoO5DFPoanQPQ159otstjHMW4we6gCeuRb7A83KeBNAT273/dKZzH84RLncsVL7T3s2XAF2r0xrpIRTi/sRzkdDMb5OKTavRYGuEREKMe3BuePHFBRaW/2R/wfQB3dL8AFkF6cAtEZL7X3xDu5REREeywNPUzM8bNBArli2LOXsjj/gaKSCoCb7+TXAfcQg1wiIiIi6h0OVyAiIiKi3mGQS0RERES9wyCXiIiIiHqHQS4RERER9Q6DXPr++F79JxmpP7h/908a5r/QtgvcvwQg9j34PA5oCwa5T8ZHhN4reMXix8bPFG+ThvBrP3lYXCy84oJh/gwmVZn9tAu7zs/VY5V7X+E3qu9T65enJg2BCYDZib2lX3p6Po19D573cAFlGj5s/qWHbkdnuz5eHPNLwz3qg2+AQe6T8QJX8jNEfoaO/mJv3CBDOFngqOm3u0fFvwcDYHiY/18V/1ZkQOgXHxoP8H2sfyh9D2Rxt7tEM0GnbwifCRC1/Gb8few6P1cPXW4Wr4+RynLP4+XqnvV97P1La1kKTAHoK3vL/XXdv9+K8/n0kWQx/C7nycLJTKDNz0cWw/fygLG6+Ajv8TkfX1n5OzqZSadffqu147FtO15Wgaq1NNyvAhzyK4zPIuD0ojWbvmGQ23NZfIxrddR8TThU+U/zDgEMDvJ1o+LflRTwhsDh+fqXzm7OgekQaLo7TN+vwQkgCYCg+st4yREwOQa6X//oqRuMgdl38kX4TufTHhicYCYJAgRIRCDFopMjLCbHfCDiatvxMr4qzqHWObXhfhXgkF9pcILz4BrT72RH7WWQm4aXq8fynvcKvv+2+UZQ9gGhv07n+W8R+q/qsVf2EaFv5nmJMH4L3/+wTpO+XW0PUyBL38Ivyw8/VK7P2+qXxdXtYZrXtczP817BCz8WiT8iDi+NbZfww487igcyvLudQx29tDcYRsUFaAgoAIfD6uZwCkQaODE+WYMxMNPAYpL/VRkXd3nNuwTlOs+vBjdZWr0r7Pn1YNl81JKl68cwnm/9FZvl24anwPy0+tdu7Y5FWt2+6QMem39B+81pXdpRcskPsPLzAD/8usDwscq1jU+AYA5oa32Xcit3NZra8oj7dxvn47ng2i9Zmj9VqbSlYeyrc36xUbcind9w58glnWv/mfs1tV6HZjsc969ruaXKvrE33seW8+kDyNIQfvEo3vN8hHGGLPbz1/nFJ39UPzzFfH5avftqHysAsjg07tTm+bkYjE9wHsyxtD7naVjUpVh8P2y+npdt2Vh2itDMq7Z9zakdWYo49Cvp/DDdzaHgZNfHi1t+458CzE8vvmE7H9GXL19ERKT897Hp6LWoYClaG+uS96LUG0nMhPJJAryWIPm0XqU/SaB+kaCScCkBXktkppNPkkSvBeq9sS6XBL8I1GuBerN6j06WUlanW/3sdSJRrX6fKnnJqg71upV09FpUZLanhY5EQUlk5e8uEUFgr1yLlKwy15GIiuwUIkrJqvNERERbr0UkQMN7ExGofEmKNyRR/tp+f1vZbcx62yIl1R2k83WA9R7HdrjmV6Yz80wiEbWh/zd5rHKbjpmm/eZabqTyY0hF67Ra5+s27cNN21z6xXX/OnM8nl37pcyvzEtk3Razjs756Xp+WosoSPUk1iFdl/4LUOznwOgf++xZ2LR/u5abBMX9saD+vidAR0pUVD2ekygQpZQou490JKqtHwo6UqKCxOgKLUmkRAFWfokECCq7XCf1680qP3NdEolS1nsjlddZReu0WkvU1I5C3vYN25zaoRuuvxBs6advq+Gc+rW+OjZ4OvYsyF02BoYiIpK8EQRLY0VT8FqXBL+4BYSFPL1ZjqlL/RqCUf1e1IbgdWVLulq+bZJAYJ2IOtkWPJoXm7a0tSC3QeN7k/ziY1e+Kb/G92/QepHccDIJ7CCoQa0ervltSJcEVlDmYkN+D1qurPebvVQuxB3KtYO2Fd2exzfbv124HM8b6mf3i0t9u+QnTUFzE9d0DTb1X2AfIxu07t8Wm8p90nQt0CwlgR3MFYHNxn6oB66rLbX8EgkAgbVUA+72/CQJBMbxpyPVEli2t7E9yG0vt96OBlv76Vvb8Dm+t3z/3esU/8Ts13CF7DMW+B0T87F+uUx+BxbmNwq8wFXyZ9xOfl2n8S8RNnzrwOjgub1qo9HBC3tVrlP9gMHJDxidvl89xUsvfsPo/O+VNPWhFK/gHf8P82qqxzE4AOZLe+3XqT1i9YDjWztVIWgff/QQsrvGgfpAOd7J4NIO1/yyOwDX1bzKZXINLO7Md273WOWuWGNyRQOYrh+jdy23cbjNAFCLbo+YXfsFjvu3sy3Hc9d+Odgy0LVTfmMgGQGT4TqN3zSUwzHdffrvYFPnOLpPuU9V9g4Lddh4SA3t49lFdtcxv+qYXBGNc0zh+XH+sczusMA1JubwiHKpHX9oGVY3wKFa4M4+DDfp0o4sRehXh1N4x7f7cf3dxreGAlKj/QpyBy8wwt+QFN8iUFtmVoA4/gdmq+3/gr75Abj9tTYEa3FXD3zvpWv98AI/Bb9jGn8Gsg+YLn5E9UsOPiMc/hc4/ye0mc/NX9F0SulseAiFjieIijEQXNfH5AH5GLlTAC+3XGgrMmA4Bc5vqkHQzZGd8HFsCuqX5mnPsR2u+Q1eNgSGxtL1q5ceq9xWA+BkBuA2Pyl3Lff2XfU1kB9/83L8mSPXfnHdv7vWtV+2fbC75rea6CL5HyY358DtsP7535rukfrv0crtrvzarHzM7D0NXmI0X9Z2DwDoyvHsaHDwlfkNMD6ZIcIt3hWf81EtEDYW6/ibt3zOl/PR1r/nKpzbkSEsjhdt1uvmqPX6u5P9tg+yOyyg2obs9sp+Bbl4jqsEmPofkFXO35+RxpfryVooJneFZrrnGOBPsO/TjM9+BE7/jTg1At3sM9L4LXzvsnUAfDP3+pXy8t8jvvgNOHphXZM/AQAOh89X67PsI8Lj33bzl+TgJY7UHLfvOjWy6iwCJtadmjQG/AkQ3VSDjHkRxKC8o+Kh2pBiRsLQeFOWAsen69f3NV/Wy+58IhoD0cJ6X5ZPors2Vjm3wzW/AZAgv9NZ2VVF2gdrx67L3SANjaC0a7m31bRZBvhTIDqz0m3j2i+u+3fXOvTLWQScHle/mi3Likl15R2eDvnFfj7Ra5VukE9esTmle6z+u0e5O5945iLD3QIAFKKmr3Z0NsBZtMA0rh7PaRxiumgJ0+bL9SGTpQh9M2Ab5/lVJl5lSGMf08rno12WhjhdBaWD4noZW9fLPE87UFS4hW+mzTLE/hSL6Kzxrmw713bkx8vhcGBcf1OEx6ct199d7bc9oJeYY9TtHtVTtV9jcnM6eS+B+kWAcnktgTVONp8A1pSuYayqXkqgXlfSqeB9ZcB5Epj5GEvD2FiX+pnyvN/UhpKKiOjkjSijPKXeSJK8L9atx//qyKy/tVhjgU3tY5060FE+sWR1b6RlTF5UTuLAegJJ+b5yHNRqooeZLipeF+OOKmnKMYvWWE97XJVZNlR9fF85uahpsQcm1fIyJieVaV3a0SU/kWJCkFm3hnZ08a3L1WX7GxbVMLFnW7lBsT7SzW0xPeb+3abr8bytX0o6ycf0mukCY4JeySW/qHhvLV1DP7ukc+2/ch/bi33Oct2/ruXW0jccnw9FR6KAypjUr6GTQJQqx8UqCSLdOl5VR0Fe9iptvQ71NHl+KOtc1r9pUUHtUNBJJMGqfvVyk6Acz6sby67kVdajabH6symvSjvKvjPyUCqQJCnbZ43r3fF+28o+lmtLw/wUR05jk3vC+/Llizx79gx//PEHnj17ZsfA9OSlCL0pDvWs+btyXWQpcDyx7soi/06+ZLZ5nCEREa1ksY/hKRB9zTl5iyz2cYybTj+WQJt9i/32TWQx/OES53L1XVy692y4Au3eGFfJCKcX9iPgDgbj/FeGan9LMsAlIupCL+dAcP60A6XvUF/2W3pxCnQeAvJ08U4uERFRD6Shh4k57jRIIFffSzhDVMcgl4iIiIh6h8MViIiIiKh3GOQSERERUe8wyCUiIiKi3mGQS0RERES9wyCXvj++V/0FNyL6vqVh/stwu8DzC9HeYJD7ZHxE6L2CVyx+bPxM8TZpCL/2U6nFydgrTsjmz1tSldlPu7Dr/Fw9Vrn3FT6x+tLTlIbABMDsxN7yferpdSH2PXieB/+Bzidp+LD5P3Vp+Dh9wyD3yXiBK/kZIj9DR3+xN26QIZwscNT0W9uj4t+DATA8zP+vin8rMiD0i5OdB/g+1j+AvgeyuNtdmJmg0zd6zwSIWn4L/j52nZ+rxyr3vq6eWH3p6clSYApAX9lb7q/r+WXfOF8XHkkWw+9yvi+czAS66XySpQiLANjzPHh+iDj0Owdk46uW/AkAMD6LgNMLNNxue1AMcnsui49xrY6az7mHKv9p3iGAwUG+blT8u5IC3hA4PF//0tnNOTAdAk13h4mInorBGJhdAU3nx++V03WhL1KEx1Mc3ghE8kWfA7fXtd+wp681OMF5cI1pxz8evtZeBrlpeLl6LO95r+D7b5tvHGYfEPrrdJ7/FqH/qh57ZR8R+maelwjjt/D9D+s06dvV9jAFsvQt/LL88APM4rfVL4ur28M0r2uZn+e9ghd+LBJ/RBxeGtsu4YcfK+XdX4Z3t3Ooo5f2BsOoOMEPAQXgcFjdHE6BSAMnxp3gwRiYaWAxAVIAcXGX1/zrulzn+ag0Jkurd4U9vx4sm4/IsnT9+Mzz8/JWsnzb8BSYnxp5WnUBimDd2L7pgxaX5RdlNqV1aUfJJT/Ays8D/LDad109VrlZbOyzIj/fs/ZdS7q2clfHREtbzO2p9Tq0joVN7S3f54frdGFq5NfwFGNTfqam9tr90uW4csnPhfPnreDc3jR/6mO2JW4Y++qcn2N7XdK59rPzceV4fnEtF47tKFX2ob3xPrZcFx5AlobwV3dUfYRxhiz289f5RTQfcjA8xXx+ur7z6nnw7GMKQBaH8Fdp8vxq0v/gGtWbQIPxFW6a7shmcf2Ob0OWKNuyqew0XOWTxxvr9H4YW/FG0Qfldj9cn4LKfIq7z/n7UyM/H6F1vtqYn6mhvaGf13edJs3vehtt9cO09RAc/xRgfnrRuv1BfPnyRUREyn8fm45eiwqWorWxLnkvSr2RxEwonyTAawmST+tV+pME6hcJKgmXEuC1RGY6+SRJ9Fqg3hvrcknwi0C9Fqg3q/foZClldbrVz14nEtXq96mSl6zqUK9bSUevRUVme1roSBSURFb+7hIRBPbKtUjJKnMdiajITiGilKw6T0REtPVaRAI0vDcRgcqXpHhDEuWv7fe3ld3GrLctUlLdQTpfB1jvcWyHa35lOjPPJBJRG/p/k8cqV3R1n4mIaC2iIJUPQxLU+0q0SKCq6SKVH0MqWtdR63xd0z4MUKQPjOPGyNClvToq+inJ66SQb9dFvc3PhEt+Iu794npcOefnyvHz5tzeIj+zfuUxaLbFOT/X9nZI59TPhW3HlWnT+cW5XNd2FJKgeM5WHKdPjI6UqKh6vkqiQJRSouy+1JGoWn9V6UiJChKjK7QkkRIFWPklEgASRHpztyWBKBVZabQkgaqcZnWk8jqraH1d11qipnaISBJAoJRABRIV+1on63qv2mEeBkkkSgXrw0BHRbvy81WkIFBBfugkgQBBt/zytRJASWAdf4GCFb/ohvgFgrb989UxSXd7FuQuGwNDERFJ3giCpbGiKXitS4Jf3ALCQp7eLMfUpX4Nwah+L2pD8LqyJV0t3zbFAd5YXxfbgkfzZN6WthbkNmh8b5KftO3KN+XX+P4NWi9CG4L6wA5yG9Tq4ZrfhnRJYAWrLjbk96DlSpGnHdw0aNqP0tCHdlC0opvrHpTBaRPH9tp1MPtMR0YejvnlK9z6pYldH5Gvy6+Ry+etQ3tdPi9d8nNur2u6Bo39XNh4XFlazy8tGsv9inY8OVqClutUEthBad5fm4PcpGN+iURBHgADeYBYBpylSLUEZlZddKRaArzmNub1sdeW2tshSSAwzldmHSpt1JGoVR6O+eUrJICq9YOTjfun+KOisRIPY7+GK2SfscDvmJiP9ctl8juwML9R4AWukj/jdvLrOo1/ibDhWwdGB8/tVRuNDl7Yq3Kd6gcMTn7A6PT96ulSevEbRud/r6SpD6V4Be/4f9iLEUGDA2C+tNd+ndojTA84vrVTFQKgYb7cg8nu2idYHFqPr1za4ZpfdgfguppXuUyugcWd+c7tHqtcAMAYSEbAZLjOy7eHF6TAvHwcamk65hqH2wwAtWh+NHvQctDsur2d8nPpF8fjCnDPr5Mtn7dO7S0mLm3SKT/X9jqmc+5nQ9tx1YVzuY7t6IPsHRbqsPHQG9rnXRfZXbf8BmOcXM0wK8fk3vyE5XRoTDxLsZyPmg/nwQFG82VlBEnz8MABDtUCdw27b9R2XGV3WOAaE2NowWqpfT4cdMpvjKtkhNvJ0Biu0DDsIksR+tXhD97x7X7EL4X9CnIHLzDC35AU3yJQW2ZWgDj+B2ar7f+CvvkBuP21NsRpcVcPfO+la/3wAj8Fv2MafwayD5gufkT1Sw4+Ixz+Fzj/J7SZz81f0fBR7G54CIXmD5abMRBcN48BQwqcAnjZ9MlvkwHDKXB+s57EJgLcHNkJH0dTgFVamh9bx3a45jd4mQcYZl7m0vWrjR6r3NL4yshH5xMVb4fGcTRuD1CbAvTbd9XXwOZAuc2u29s1v6394nhclbbmt2Nd27vtxNM1P9f2bk3XsZ93pmO5W9vx+MqvzcrHzN7T4GUtUCzpynnXUUPgWbLzS0NrjCmAwWCMq/MA86Uu1oxbA9SmgHrecr5qDZTbDF5ihABJEXzXFvvzsU3X/MZXq8BfREMXx9+6vzKExfGszXxujtrjl+wOC6hvMcR7Zb+CXDzHVQJM/Q/IKgfUZ6Tx5XqyForJXaGZ7jkG+BPs+1fjsx+B038jTo1AN/uMNH4L37tsHnDdyr1+pbz894gvfgOOXljX5E8AgMPh89X6LPuI8Pi33fwlNHiJIzXH7btOjaw6i4CJdQchjQF/AkQ31SBjfrsOXMoJLJWGFCeNofGmLAWOT9ev72u+rJdtn722GgPRwnpflk+iuzZWObfDNb8BkCCfkFPZVUXaB2vHrsstJhyGZn6DfPKK7XwEHFvlZll+V+vcPnnfVuuYZYA/BaIzK902u25vh/yc+sX1uHLNb9c6tPcsAk6Pq5P0sqyYDFlORu2Qn2t7ndJ16Oed6lCuUzsMO5945iLD3QIAFKKmr6h0NsBZtMA0rp6v0jjEdNESLs2X60Or/Aqw1fEyzvOrTIDKkMY+ppXzX+564iOuBAIZ0v9cI/hp3aaT8xFuj+PqdT/LEB/fYmSdrxRu4ftG2ixD7E+xiM4a7y63GxTxhlVu0Zbuf1i455fFPrzQTDfAAEMrvsqP58PhwIhfUoTHp+3xi15ijlG3e2Nfa7/G5OZ08l4C9YsA5fJaAmucbD4BrCldw1hVvZRAva6kU8H7yoDpJDDzMZaGsbEu9TPleb9pHoKYvBFllKfUG0mS98W69fhfHZn1txZrLLCpfYxQBzrKJzys7iu0jBWLyskPxUSdpJgoAWN83mqChJmumOhTjs+rpCnHBBZjBsvFHiBllg1VHz9XTrpqWuwBQrW8jElbZVqXdnTJT6SYcGPWraEdXTxGuZESCZryazhe7OOqnNxVCor1kW5ui6lMay9Nx/6m9jYde2XeQVKMyTW2bcuv5NovrseVa34umtq86fPm0l7JxzqKMj93RZ3tKrrk59pe13Su/ex6XLmeX1zLdW1H6TEmnhUTnqpjOe9PJ4EoVYyLhcong0XNE7Z0FKzH0EJJYB8vjWny/GDUOQkgQZRIsCq3SNt0fdNRNZ0Kqh+LIF+vIt1YtqlMW1vs40ryiWG1+hnnK3N9pI28i/NVXo/1mOKN+ZVlRkpU0JSu2g6dmO1EPoEtKcusj/9tHBP9wLwvX77Is2fP8Mcff+DZs2d2DExPXorQm+JQz5q/K9dFlgLHE+uuLPLvUkxmm8fxERFR72Sxj+EpEH3NtWWLLPZxjBvMHqoA+nayGP5wiXO5+qYhw54NV6DdyweQn150fbRhGIzzX/Gp3aNggEtE9D3SyzkQnD9YgEv9kl6cAp2HbHw93sklIiKivZGGHibm+NkggVx96/CI+oBBLhERERH1DocrEBEREVHvMMglIiIiot5hkEtEREREvcMgl4iIiIh6pxdBbuy/gh/v6Kd7iYiIiOjJ2+sgN4vfwvdewSsX/23Hn+ElIiIiou/R/n6FWPYB/vATzvU/MOaXTRMRERFRB3t9JxfqTwxwiYiIiKiz/Qtysw/5EIXhb5jPf1sPVfBeIaz8Mu1HhMa22pjc9O1qiEMcXuZpwo/I0nIIxCXC1HpP9gGhXx0eEfp2uUBa5Lcqm8MoiIiIiPbK/gW5g79jJj9D9I9Q6keI/Lxaqr/q9wJXxXod/cXckBv/I89j/jtuD3+AyL9wtLjFcAqc658hyZ9xPXmPdWz6GeHwf8D5v9Zl3vyfSpYAkMWXmOIHaL2u1835nzA9fgsrFiYiIiKiR7J/Qe6uqR8xO3kB4DkORoA6+j/5EIjhn6AA6FXCTwCAQ+OtGDzH1cwMrj/i4vTPOL96gYExjGIw/jtm58Ak/LheSURERESPpv9BrrMXuEr+jNvJr8ZwhUuE5jCI7DMW+B0T8xsfymXyO7Dg15gRERER7QMGuabxP/KhEvIzRP4FffMDcPvrekzu4AVG+BsSYwhFZZn93cqQiIiIiB4Dg9xCFl/CCz8gWw3SfY4B/lQdvoDnuEqAqW+mA4DPSONLeByuQERERLQX9u97ctO3+aP/BkGyHh+bxZcYnv4/O0kuOIL89NHI5y+I9P/FwcUrTK6L7Wef4Q9/w7zY9vLdJY6Xf8Vo8Ruu52VGf0EQ/RNXJ8/XeQPI0g+4mNrpfsDVyYtKOiIiIiJ6HPsX5BIRERERfSUOVyAiIiKi3mGQS0RERES9wyCXiIiIiHqHQS4RERER9Q6DXCIiIiLqHQa5RERERNQ7DHKJiIiIqHd2GuTGPuDH9lpivxARERF9W05BbhYDvgd45eIDaeVnbR9HaNSJQSQRERERlbb/4lkG+EPgXAPjgb1xP2QxcAxgdmJveSIywD8GZjN7AxERERHdh9OdXKj9DXCJiIiIiGztQW5WDFEYAvO5MVTBA8K0mnTjsIF0PcQhDos0IZCl6yEQlfyyPJ05PMIPga8ZHVEZbuEDcbaus1126FeHZcR2wWV7ivea7bDrubFfCrHf3MeeXyTo2n9wbAcRERFRj7UHuQNgJoBoQClAZL1cjatJr4r1OqquBwCMizzmwO1hnu5oAQyn+RAISYDriREcDoCXZ0XZxXIOYFgGfR1lMXC8BG7K/G4AHAPXACJttCXNhwyczYy2zoCDCyuIHOfbkgC4nubtOErydTc/Gem29UvhZNbcx1IOXejaf67tICIiIuqx9iB319R6zOzBCFBHxRCIIaAAaCPpwBoaMT7L09zHxSlwfgWsshwAJzf1/OIpcHRjpCuMz4DF1FpZUEd5AHlSBMqDcf39O+PYf/dpBxEREVHffLsg15X9qN0DvGNgbqdzkQELBVg3noEBMLJWLefAgR0Zokg7B5pugo4O7DWP7z7tICIiIuqbvQtywyGAc0Cbj+4b7rw6aQvsMmBhrTpUwF3TuNW2QHlP9aUdRERERF9j74JcADgcrh+3ZxkQ3vdOLoCzCJiaE8IyIG7I7+QcuD3Oy1sp0o7OjXUPZW5893B5Nzu00jh49HYQERER7YMvX76IiEj570pSmQZVWYJknUxH9e2rJajnE2mRJDC2axFlbNPJ+jUgopRIYqwri95arkFHRp4qLycoyqsmFAmUkU+R1rSqu72oarou9SvTm+0OomJDx/7LM9veDiIiIqI+2/5jED0VesChBk6axq8SERER0ZO2l8MVHloWA9cKeMkAl4iIiKiXvo8gt/xhi2IZ3gJJw9dsEREREVE/fLfDFYiIiIiovxqDXM+zk1GfiNhriIiIiPqlMcglIiIiInrKvo8xuURERET0XWGQS0RERES9wyCXiIiIiHqHQS4RERER9Q6DXCIiIiLqHQa5RERERNQ7DHKJiIiIqHcY5BIRERFR7zDIJSIiIqLeYZBLRERERL3DIJeIiIiIeodBLhERERH1DoNcIiIiIuodBrlERERE1DsMcomIiIiodxjkEhEREVHvMMglIiIiot5hkEtEREREvcMgl4iIiIh6h0EuEREREfUOg1wiIiIi6h0GuURERETUOwxyiYiIiKh3GOQSERERUe8wyCUiIiKi3mGQS0RERES9wyCXiIiIiHqHQS4RERER9Q6DXCIiIiLqHQa5RERERNQ7DHKJiIiIqHcY5BIRERFR7zDIJSIiIqLeYZBLRERERL3DIJeIiIiIeodBLhERERH1DoNcIiIiIuodBrlERERE1DsMcomIiIiodxjkEhEREVHv/H9XGSwbPV4CGwAAAABJRU5ErkJggg==;" vertex="1" parent="1">
          <mxGeometry x="137" y="210" width="576.83" height="600" as="geometry" />
        </mxCell>
        <mxCell id="kS9kcs_yrtDZrmXysHUf-18" value="" style="edgeStyle=orthogonalEdgeStyle;rounded=0;orthogonalLoop=1;jettySize=auto;html=1;" edge="1" parent="1" source="kS9kcs_yrtDZrmXysHUf-15" target="kS9kcs_yrtDZrmXysHUf-17">
          <mxGeometry relative="1" as="geometry" />
        </mxCell>
        <mxCell id="kS9kcs_yrtDZrmXysHUf-15" value="qtdCarne &amp;lt;- 0.3 * pessoas" style="rounded=1;whiteSpace=wrap;html=1;absoluteArcSize=1;arcSize=14;strokeWidth=2;" vertex="1" parent="1">
          <mxGeometry x="70" y="1475" width="170" height="45" as="geometry" />
        </mxCell>
        <mxCell id="kS9kcs_yrtDZrmXysHUf-20" value="" style="edgeStyle=orthogonalEdgeStyle;rounded=0;orthogonalLoop=1;jettySize=auto;html=1;" edge="1" parent="1" source="kS9kcs_yrtDZrmXysHUf-17" target="kS9kcs_yrtDZrmXysHUf-19">
          <mxGeometry relative="1" as="geometry" />
        </mxCell>
        <mxCell id="kS9kcs_yrtDZrmXysHUf-17" value="qtdCarne &amp;lt;- qtdCarne + (qtdCarne * 0.08)" style="rounded=1;whiteSpace=wrap;html=1;absoluteArcSize=1;arcSize=14;strokeWidth=2;" vertex="1" parent="1">
          <mxGeometry x="70" y="1540" width="170" height="45" as="geometry" />
        </mxCell>
        <mxCell id="kS9kcs_yrtDZrmXysHUf-25" value="" style="edgeStyle=orthogonalEdgeStyle;rounded=0;orthogonalLoop=1;jettySize=auto;html=1;" edge="1" parent="1" source="kS9kcs_yrtDZrmXysHUf-19" target="kS9kcs_yrtDZrmXysHUf-21">
          <mxGeometry relative="1" as="geometry" />
        </mxCell>
        <mxCell id="kS9kcs_yrtDZrmXysHUf-19" value="qtdBebida &amp;lt;- 1.5 * pessoas" style="rounded=1;whiteSpace=wrap;html=1;absoluteArcSize=1;arcSize=14;strokeWidth=2;" vertex="1" parent="1">
          <mxGeometry x="70" y="1610" width="170" height="45" as="geometry" />
        </mxCell>
        <mxCell id="kS9kcs_yrtDZrmXysHUf-26" value="" style="edgeStyle=orthogonalEdgeStyle;rounded=0;orthogonalLoop=1;jettySize=auto;html=1;" edge="1" parent="1" source="kS9kcs_yrtDZrmXysHUf-21" target="kS9kcs_yrtDZrmXysHUf-22">
          <mxGeometry relative="1" as="geometry" />
        </mxCell>
        <mxCell id="kS9kcs_yrtDZrmXysHUf-21" value="&amp;nbsp;qtdBebida &amp;lt;- qtdBebida + (qtdBebida * 0.12)" style="rounded=1;whiteSpace=wrap;html=1;absoluteArcSize=1;arcSize=14;strokeWidth=2;" vertex="1" parent="1">
          <mxGeometry x="70" y="1680" width="170" height="45" as="geometry" />
        </mxCell>
        <mxCell id="kS9kcs_yrtDZrmXysHUf-28" value="" style="edgeStyle=orthogonalEdgeStyle;rounded=0;orthogonalLoop=1;jettySize=auto;html=1;" edge="1" parent="1" source="kS9kcs_yrtDZrmXysHUf-22" target="kS9kcs_yrtDZrmXysHUf-27">
          <mxGeometry relative="1" as="geometry" />
        </mxCell>
        <mxCell id="kS9kcs_yrtDZrmXysHUf-22" value="qtdSobremesa &amp;lt;- pessoas" style="rounded=1;whiteSpace=wrap;html=1;absoluteArcSize=1;arcSize=14;strokeWidth=2;" vertex="1" parent="1">
          <mxGeometry x="70" y="1750" width="170" height="45" as="geometry" />
        </mxCell>
        <mxCell id="kS9kcs_yrtDZrmXysHUf-30" value="" style="edgeStyle=orthogonalEdgeStyle;rounded=0;orthogonalLoop=1;jettySize=auto;html=1;" edge="1" parent="1" source="kS9kcs_yrtDZrmXysHUf-27" target="kS9kcs_yrtDZrmXysHUf-29">
          <mxGeometry relative="1" as="geometry" />
        </mxCell>
        <mxCell id="kS9kcs_yrtDZrmXysHUf-27" value="pessoas" style="strokeWidth=2;html=1;shape=mxgraph.flowchart.display;whiteSpace=wrap;" vertex="1" parent="1">
          <mxGeometry x="97.75" y="1820" width="114.5" height="40" as="geometry" />
        </mxCell>
        <mxCell id="kS9kcs_yrtDZrmXysHUf-36" value="" style="edgeStyle=orthogonalEdgeStyle;rounded=0;orthogonalLoop=1;jettySize=auto;html=1;" edge="1" parent="1" source="kS9kcs_yrtDZrmXysHUf-29" target="kS9kcs_yrtDZrmXysHUf-35">
          <mxGeometry relative="1" as="geometry" />
        </mxCell>
        <mxCell id="kS9kcs_yrtDZrmXysHUf-29" value="qtdCarne" style="strokeWidth=2;html=1;shape=mxgraph.flowchart.display;whiteSpace=wrap;" vertex="1" parent="1">
          <mxGeometry x="97.75" y="1880" width="114.5" height="40" as="geometry" />
        </mxCell>
        <mxCell id="kS9kcs_yrtDZrmXysHUf-39" value="" style="edgeStyle=orthogonalEdgeStyle;rounded=0;orthogonalLoop=1;jettySize=auto;html=1;" edge="1" parent="1" source="kS9kcs_yrtDZrmXysHUf-31" target="kS9kcs_yrtDZrmXysHUf-38">
          <mxGeometry relative="1" as="geometry" />
        </mxCell>
        <mxCell id="kS9kcs_yrtDZrmXysHUf-31" value="qtdBebida" style="strokeWidth=2;html=1;shape=mxgraph.flowchart.display;whiteSpace=wrap;" vertex="1" parent="1">
          <mxGeometry x="97.75" y="2000" width="114.5" height="40" as="geometry" />
        </mxCell>
        <mxCell id="kS9kcs_yrtDZrmXysHUf-33" value="qtdBebida" style="strokeWidth=2;html=1;shape=mxgraph.flowchart.display;whiteSpace=wrap;" vertex="1" parent="1">
          <mxGeometry x="97.75" y="2120" width="114.5" height="40" as="geometry" />
        </mxCell>
        <mxCell id="kS9kcs_yrtDZrmXysHUf-37" value="" style="edgeStyle=orthogonalEdgeStyle;rounded=0;orthogonalLoop=1;jettySize=auto;html=1;" edge="1" parent="1" source="kS9kcs_yrtDZrmXysHUf-35" target="kS9kcs_yrtDZrmXysHUf-31">
          <mxGeometry relative="1" as="geometry" />
        </mxCell>
        <mxCell id="kS9kcs_yrtDZrmXysHUf-35" value="qtdCarne * 0.08" style="strokeWidth=2;html=1;shape=mxgraph.flowchart.display;whiteSpace=wrap;" vertex="1" parent="1">
          <mxGeometry x="97.75" y="1940" width="114.5" height="40" as="geometry" />
        </mxCell>
        <mxCell id="kS9kcs_yrtDZrmXysHUf-40" value="" style="edgeStyle=orthogonalEdgeStyle;rounded=0;orthogonalLoop=1;jettySize=auto;html=1;" edge="1" parent="1" source="kS9kcs_yrtDZrmXysHUf-38" target="kS9kcs_yrtDZrmXysHUf-33">
          <mxGeometry relative="1" as="geometry" />
        </mxCell>
        <mxCell id="kS9kcs_yrtDZrmXysHUf-38" value="qtdBebida * 0.12" style="strokeWidth=2;html=1;shape=mxgraph.flowchart.display;whiteSpace=wrap;" vertex="1" parent="1">
          <mxGeometry x="97.75" y="2060" width="114.5" height="40" as="geometry" />
        </mxCell>
      </root>
    </mxGraphModel>
  </diagram>
</mxfile>
